<svg id="svg" version="1.1" xmlns="http://www.w3.org/2000/svg" xmlns:xlink="http://www.w3.org/1999/xlink" width="400" height="159.86733001658374" viewBox="0, 0, 400,159.86733001658374"><g id="svgg"><path id="path0" d="M66.819 4.565 C 66.781 4.601,65.737 4.715,64.500 4.818 C 63.262 4.920,61.882 5.116,61.432 5.252 C 60.982 5.389,60.399 5.500,60.137 5.500 C 59.874 5.500,59.117 5.644,58.455 5.819 C 57.792 5.995,56.538 6.298,55.667 6.493 C 52.815 7.133,50.642 7.800,49.065 8.521 C 48.688 8.693,48.297 8.833,48.196 8.833 C 48.094 8.833,47.765 8.937,47.464 9.064 C 47.163 9.191,46.467 9.462,45.917 9.666 C 44.274 10.275,39.374 12.666,38.686 13.195 C 38.467 13.363,38.227 13.500,38.153 13.500 C 38.078 13.500,37.681 13.726,37.271 14.003 C 36.861 14.280,36.276 14.616,35.971 14.751 C 35.666 14.885,35.117 15.215,34.750 15.485 C 34.383 15.754,33.371 16.469,32.500 17.074 C 26.400 21.314,19.227 28.420,15.753 33.667 C 15.480 34.079,14.871 34.947,14.399 35.596 C 13.927 36.244,13.494 36.919,13.437 37.096 C 13.346 37.378,12.072 39.467,11.716 39.918 C 11.643 40.010,11.222 40.835,10.781 41.751 C 10.340 42.667,9.913 43.529,9.833 43.667 C 9.140 44.859,7.500 48.656,7.500 49.068 C 7.500 49.148,7.360 49.522,7.190 49.898 C 6.334 51.788,5.202 55.542,4.817 57.768 C 4.736 58.236,4.556 58.890,4.418 59.221 C 4.280 59.552,4.167 60.078,4.167 60.390 C 4.167 60.701,4.017 61.426,3.833 62.000 C 3.650 62.574,3.500 63.352,3.500 63.730 C 3.500 64.108,3.387 65.054,3.249 65.833 C 2.414 70.552,3.507 73.119,6.581 73.654 C 8.251 73.945,67.626 73.897,68.872 73.603 C 70.071 73.321,71.192 72.435,71.755 71.324 L 72.167 70.511 72.167 39.170 L 72.167 7.828 71.665 6.939 C 70.983 5.730,70.147 5.009,69.108 4.732 C 68.301 4.518,66.973 4.421,66.819 4.565 M87.417 4.974 C 85.770 5.604,84.840 6.441,84.241 7.833 L 83.847 8.750 83.840 39.604 L 83.833 70.458 84.193 71.270 C 84.688 72.392,85.124 72.942,86.000 73.557 L 86.750 74.083 118.466 74.126 L 150.182 74.169 151.241 73.379 C 153.128 71.971,153.553 69.688,152.768 65.167 C 152.633 64.387,152.446 63.300,152.354 62.750 C 152.104 61.275,151.567 59.025,150.821 56.333 C 150.656 55.737,150.470 54.913,150.408 54.500 C 150.345 54.087,150.190 53.547,150.064 53.300 C 149.937 53.052,149.833 52.715,149.832 52.550 C 149.832 52.385,149.717 52.031,149.578 51.764 C 149.439 51.497,148.986 50.410,148.572 49.348 C 148.158 48.286,147.659 47.004,147.462 46.500 C 147.265 45.996,146.859 45.133,146.560 44.583 C 146.260 44.033,145.823 43.171,145.588 42.667 C 144.806 40.986,144.255 40.029,142.895 37.991 C 142.678 37.665,142.500 37.328,142.500 37.241 C 142.500 37.154,142.204 36.671,141.843 36.167 C 141.482 35.662,140.698 34.537,140.101 33.667 C 139.503 32.796,138.771 31.821,138.474 31.500 C 138.177 31.179,137.591 30.467,137.172 29.917 C 135.995 28.371,131.912 24.110,130.500 22.954 C 130.179 22.692,129.542 22.124,129.083 21.694 C 128.625 21.264,127.706 20.504,127.042 20.007 C 126.377 19.509,125.833 19.041,125.833 18.967 C 125.833 18.894,125.754 18.833,125.657 18.833 C 125.514 18.833,124.340 18.006,124.000 17.667 C 123.761 17.428,122.826 16.833,122.688 16.833 C 122.601 16.833,122.165 16.545,121.720 16.193 C 120.393 15.144,116.571 12.985,113.500 11.549 C 112.721 11.184,111.586 10.649,110.978 10.359 C 109.950 9.869,108.463 9.318,106.667 8.763 C 105.665 8.453,104.493 8.029,104.083 7.827 C 103.633 7.605,102.185 7.215,100.667 6.906 C 99.979 6.767,98.999 6.543,98.489 6.409 C 97.979 6.276,97.374 6.167,97.144 6.167 C 96.915 6.167,96.170 6.018,95.489 5.837 C 94.807 5.656,93.912 5.505,93.500 5.501 C 93.087 5.497,92.244 5.387,91.625 5.256 C 90.235 4.961,87.865 4.803,87.417 4.974 M143.080 84.422 C 142.070 84.538,140.907 84.724,140.497 84.835 C 140.086 84.947,139.375 85.095,138.917 85.165 C 138.458 85.235,137.633 85.405,137.083 85.544 C 136.533 85.682,135.371 85.960,134.500 86.160 C 131.658 86.814,130.831 87.074,127.417 88.394 C 126.592 88.713,125.729 89.024,125.500 89.087 C 125.271 89.149,123.939 89.755,122.541 90.433 C 121.142 91.112,119.957 91.667,119.908 91.667 C 119.778 91.667,117.231 93.145,116.254 93.788 C 115.798 94.088,115.365 94.333,115.292 94.333 C 115.166 94.333,113.844 95.148,113.667 95.335 C 113.621 95.383,113.021 95.794,112.333 96.248 C 108.075 99.060,101.551 105.019,98.281 109.083 C 97.543 110.000,96.838 110.862,96.712 111.000 C 96.587 111.138,96.007 111.925,95.424 112.750 C 94.840 113.575,94.218 114.438,94.042 114.667 C 93.866 114.896,93.396 115.646,92.997 116.333 C 92.599 117.021,92.039 117.921,91.753 118.333 C 91.467 118.746,90.781 119.983,90.227 121.083 C 89.674 122.183,89.028 123.458,88.791 123.917 C 88.183 125.095,87.710 126.186,87.577 126.716 C 87.514 126.965,87.396 127.211,87.315 127.261 C 87.233 127.312,87.167 127.483,87.167 127.641 C 87.167 127.800,87.017 128.224,86.833 128.583 C 86.650 128.943,86.500 129.307,86.500 129.392 C 86.500 129.477,86.355 129.855,86.178 130.232 C 85.861 130.903,85.310 132.682,84.752 134.833 C 84.597 135.429,84.327 136.387,84.152 136.962 C 83.977 137.537,83.834 138.137,83.834 138.295 C 83.834 138.454,83.691 139.108,83.515 139.750 C 82.945 141.832,82.448 145.733,82.432 148.246 L 82.417 150.596 82.968 151.293 C 83.802 152.346,84.895 153.010,86.076 153.181 C 87.391 153.371,146.441 153.371,147.755 153.181 C 149.724 152.896,150.957 151.711,151.327 149.750 C 151.633 148.126,151.491 87.625,151.179 86.793 C 150.274 84.383,148.338 83.816,143.080 84.422 M6.538 85.425 C 2.931 86.396,2.135 89.671,3.788 96.750 C 3.937 97.392,4.112 98.254,4.175 98.667 C 4.239 99.079,4.422 99.942,4.583 100.583 C 4.743 101.225,5.020 102.350,5.199 103.083 C 5.634 104.874,6.156 106.640,6.431 107.250 C 6.554 107.525,6.763 108.050,6.895 108.417 C 8.058 111.655,8.688 113.265,9.015 113.833 C 9.190 114.138,10.091 115.975,10.568 117.000 C 10.760 117.412,11.048 117.929,11.208 118.147 C 11.369 118.366,11.500 118.685,11.500 118.856 C 11.500 119.027,11.568 119.167,11.650 119.167 C 11.800 119.167,12.172 119.736,12.958 121.167 C 13.475 122.109,14.162 123.153,14.542 123.573 C 14.702 123.751,14.833 123.958,14.833 124.033 C 14.833 124.108,15.229 124.713,15.713 125.377 C 16.198 126.040,16.704 126.743,16.838 126.939 C 18.799 129.783,25.404 136.630,28.250 138.768 C 28.708 139.113,29.308 139.607,29.583 139.868 C 29.858 140.128,30.608 140.693,31.250 141.124 C 31.892 141.554,32.942 142.287,33.583 142.752 C 34.225 143.217,35.147 143.802,35.632 144.054 C 36.117 144.305,36.867 144.764,37.298 145.074 C 37.730 145.384,38.796 145.983,39.667 146.405 C 40.537 146.826,41.587 147.362,42.000 147.595 C 43.128 148.232,44.417 148.807,46.083 149.417 C 46.908 149.718,47.808 150.085,48.083 150.232 C 48.358 150.378,48.698 150.498,48.838 150.499 C 48.978 150.500,49.240 150.600,49.421 150.722 C 49.965 151.089,54.368 152.311,57.917 153.080 C 58.467 153.199,59.364 153.417,59.910 153.565 C 60.456 153.712,61.169 153.834,61.493 153.836 C 61.818 153.837,62.558 153.950,63.138 154.087 C 64.830 154.486,69.099 154.499,69.817 154.108 C 70.503 153.734,71.205 152.990,71.757 152.054 L 72.167 151.357 72.167 120.006 L 72.167 88.656 71.730 87.786 C 71.096 86.524,70.394 85.949,68.967 85.526 L 67.750 85.166 37.583 85.177 C 12.086 85.187,7.281 85.225,6.538 85.425 M211.333 89.936 C 209.454 90.294,208.167 90.644,206.667 91.206 C 193.909 95.988,193.166 115.325,205.500 121.587 C 208.536 123.128,212.667 123.564,216.768 122.777 C 219.331 122.285,222.754 120.530,224.253 118.940 C 226.859 116.176,228.265 113.336,228.906 109.542 C 229.660 105.077,228.311 98.853,226.060 96.415 C 225.889 96.230,225.477 95.722,225.143 95.285 C 224.809 94.848,224.021 94.108,223.393 93.640 C 222.764 93.172,222.224 92.722,222.193 92.639 C 221.746 91.472,213.739 89.478,211.333 89.936 M300.500 89.949 C 298.273 90.324,296.625 90.774,295.000 91.449 C 294.253 91.759,292.775 92.526,292.667 92.660 C 292.621 92.716,292.001 93.234,291.288 93.811 C 283.645 100.003,284.045 114.817,291.997 120.058 C 294.916 121.983,295.851 122.377,298.417 122.768 C 303.625 123.562,310.459 122.149,310.114 120.349 C 309.606 117.705,309.190 117.176,308.083 117.770 C 305.701 119.049,301.167 119.505,298.335 118.752 C 294.896 117.838,291.661 114.372,291.020 110.917 C 290.918 110.367,290.762 109.579,290.674 109.167 C 289.615 104.199,291.930 98.069,295.750 95.725 C 297.740 94.503,298.562 94.188,300.309 93.974 C 303.150 93.627,305.560 94.117,307.809 95.501 C 308.853 96.143,308.881 96.126,309.684 94.380 C 310.545 92.506,310.539 92.112,309.638 91.652 C 307.166 90.391,302.756 89.569,300.500 89.949 M170.276 90.805 C 170.023 91.084,170.000 92.434,170.000 106.802 L 170.000 122.494 170.407 122.596 C 171.631 122.903,184.410 122.556,185.417 122.188 C 189.698 120.624,191.484 118.065,191.539 113.417 C 191.580 109.933,190.090 107.600,186.952 106.234 C 185.837 105.748,185.719 105.181,186.608 104.582 C 188.887 103.047,190.422 98.160,189.278 96.083 C 189.126 95.808,189.002 95.479,189.001 95.351 C 189.000 95.086,188.043 93.608,187.504 93.037 C 186.595 92.076,184.904 91.377,182.185 90.841 C 179.691 90.350,170.713 90.322,170.276 90.805 M235.506 90.822 C 235.185 91.421,235.275 122.442,235.597 122.566 C 236.134 122.772,248.755 122.678,248.967 122.467 C 249.276 122.157,249.225 119.911,248.897 119.411 L 248.628 119.000 244.583 119.000 C 240.848 119.000,240.507 118.976,240.143 118.681 L 239.750 118.363 239.709 104.806 C 239.679 94.820,239.617 91.151,239.473 90.875 C 239.192 90.338,235.789 90.293,235.506 90.822 M249.673 90.821 C 249.578 90.999,249.500 91.778,249.500 92.553 C 249.500 94.286,249.177 94.161,253.667 94.167 C 255.546 94.170,257.166 94.227,257.267 94.294 C 257.817 94.661,257.833 95.086,257.833 108.719 C 257.833 120.125,257.870 122.323,258.066 122.485 C 258.219 122.612,258.916 122.662,260.107 122.631 L 261.917 122.583 262.000 108.714 C 262.078 95.693,262.102 94.827,262.381 94.548 C 262.644 94.284,263.123 94.240,266.547 94.167 L 270.417 94.083 270.417 92.333 L 270.417 90.583 260.132 90.540 C 250.097 90.499,249.842 90.505,249.673 90.821 M347.333 90.663 C 347.081 90.822,346.839 121.297,347.082 122.292 C 347.176 122.681,350.403 122.882,350.952 122.533 C 351.102 122.438,351.166 120.943,351.202 116.708 C 351.245 111.569,351.278 110.983,351.538 110.723 C 351.920 110.342,355.551 110.176,356.343 110.504 C 356.793 110.690,358.333 112.905,358.333 113.366 C 358.333 113.433,358.759 114.260,359.278 115.202 C 359.798 116.145,360.610 117.667,361.083 118.583 C 363.369 123.019,362.988 122.688,365.744 122.630 C 368.384 122.573,368.364 122.606,367.006 120.580 C 366.454 119.757,366.001 119.034,366.001 118.973 C 366.000 118.815,364.727 116.568,364.073 115.568 C 363.767 115.102,363.255 114.202,362.935 113.568 C 362.614 112.935,362.083 112.004,361.753 111.500 C 360.752 109.966,360.773 109.539,361.880 108.911 C 366.544 106.266,368.219 100.011,365.543 95.225 C 364.243 92.898,362.084 91.671,357.833 90.841 C 355.920 90.468,347.859 90.331,347.333 90.663 M370.912 90.875 C 370.861 91.081,370.840 91.888,370.867 92.667 L 370.917 94.083 374.805 94.167 C 378.409 94.244,378.711 94.274,378.930 94.574 C 379.130 94.847,379.167 97.034,379.167 108.582 C 379.167 119.003,379.214 122.314,379.367 122.467 C 379.696 122.796,383.270 122.740,383.399 122.403 C 383.454 122.258,383.500 116.012,383.500 108.523 C 383.500 96.470,383.530 94.865,383.759 94.537 C 384.014 94.173,384.085 94.167,387.687 94.167 C 389.897 94.167,391.483 94.098,391.678 93.994 C 392.043 93.799,392.149 91.748,391.837 90.928 L 391.675 90.500 381.341 90.500 L 371.006 90.500 370.912 90.875 M327.544 91.201 C 327.448 91.320,327.202 91.792,326.998 92.250 C 326.795 92.708,326.046 94.283,325.334 95.750 C 324.622 97.217,323.801 98.965,323.509 99.636 C 323.217 100.307,322.758 101.229,322.489 101.685 C 322.220 102.141,322.000 102.550,322.000 102.592 C 322.000 102.730,321.327 104.183,319.998 106.917 C 319.284 108.383,318.489 110.071,318.230 110.667 C 317.971 111.263,317.513 112.188,317.213 112.724 C 316.912 113.260,316.667 113.727,316.667 113.761 C 316.667 113.894,315.753 115.860,314.581 118.250 C 313.061 121.347,312.643 122.327,312.761 122.518 C 312.871 122.696,317.003 122.715,317.268 122.539 C 317.369 122.472,317.548 122.117,317.666 121.750 C 317.883 121.074,318.512 119.643,319.302 118.026 C 320.099 116.394,319.499 116.500,327.939 116.500 C 336.251 116.500,335.607 116.401,336.305 117.785 C 336.669 118.506,337.833 121.397,337.833 121.578 C 337.833 121.644,337.988 121.916,338.178 122.183 L 338.523 122.667 340.752 122.667 C 343.449 122.667,343.380 122.758,342.340 120.582 C 341.878 119.614,341.500 118.754,341.500 118.671 C 341.500 118.522,340.069 115.738,339.827 115.417 C 339.758 115.325,339.503 114.763,339.261 114.167 C 338.850 113.155,338.371 112.160,334.850 105.000 C 334.107 103.487,333.499 102.195,333.499 102.128 C 333.500 101.976,332.687 100.314,332.174 99.417 C 331.964 99.050,331.424 97.907,330.976 96.876 C 330.527 95.846,329.926 94.609,329.641 94.126 C 329.355 93.644,328.913 92.763,328.658 92.167 C 328.192 91.079,327.870 90.800,327.544 91.201 M215.070 94.009 C 217.220 94.308,219.297 95.435,221.117 97.291 C 226.351 102.627,225.363 113.727,219.312 117.593 C 217.109 118.999,213.902 119.658,211.333 119.230 C 204.177 118.039,200.359 112.028,201.509 103.764 C 201.833 101.431,203.743 97.823,205.304 96.594 C 206.049 96.008,207.076 95.340,207.237 95.336 C 207.321 95.335,207.509 95.236,207.654 95.117 C 208.894 94.098,212.181 93.607,215.070 94.009 M182.083 94.505 C 185.544 96.045,186.243 99.848,183.602 102.779 C 182.250 104.280,181.788 104.416,178.068 104.417 C 173.907 104.417,174.333 104.980,174.333 99.490 C 174.333 94.806,174.406 94.246,175.033 94.107 C 176.191 93.851,181.257 94.137,182.083 94.505 M358.583 94.511 C 362.549 96.081,363.899 99.703,361.964 103.583 C 361.603 104.308,360.375 105.667,360.082 105.667 C 359.982 105.667,359.816 105.751,359.713 105.853 C 358.981 106.586,357.619 106.888,354.750 106.955 C 350.830 107.047,351.250 107.822,351.250 100.500 C 351.250 94.668,351.261 94.465,351.583 94.223 C 352.165 93.786,357.286 93.997,358.583 94.511 M328.477 100.180 C 328.654 100.371,329.000 101.090,329.244 101.779 C 329.489 102.468,330.171 104.037,330.761 105.267 C 331.351 106.496,331.833 107.570,331.833 107.653 C 331.833 107.736,332.208 108.635,332.667 109.650 C 334.028 112.668,334.299 112.500,328.068 112.500 C 322.102 112.500,321.741 112.389,322.566 110.808 C 322.693 110.565,322.889 110.077,323.001 109.724 C 323.114 109.372,323.677 108.108,324.253 106.917 C 324.829 105.725,325.564 104.075,325.886 103.250 C 327.193 99.903,327.681 99.326,328.477 100.180 M184.042 108.565 C 186.261 109.653,187.158 111.262,186.954 113.785 C 186.609 118.056,184.605 119.248,177.958 119.135 C 173.907 119.067,174.333 119.723,174.333 113.563 C 174.333 107.098,173.793 107.773,178.894 107.863 L 182.750 107.930 184.042 108.565 " stroke="none" fill="#070707" fill-rule="evenodd"></path><path id="path1" d="M0.000 79.917 L 0.000 159.833 200.000 159.833 L 400.000 159.833 400.000 79.917 L 400.000 0.000 200.000 0.000 L 0.000 0.000 0.000 79.917 M70.232 4.422 C 71.519 5.207,72.303 6.255,72.676 7.690 C 73.167 9.581,73.174 68.725,72.683 70.613 C 72.212 72.430,71.596 73.185,69.917 74.009 L 68.917 74.500 37.583 74.498 L 6.250 74.497 5.494 74.123 C 3.364 73.071,1.886 70.740,2.266 69.031 C 2.300 68.877,2.406 67.775,2.501 66.583 C 2.596 65.392,2.785 64.007,2.920 63.505 C 3.056 63.004,3.167 62.348,3.167 62.048 C 3.167 61.747,3.307 61.070,3.479 60.542 C 3.651 60.015,3.872 59.133,3.971 58.583 C 4.422 56.069,4.686 54.870,4.917 54.288 C 5.054 53.943,5.169 53.530,5.172 53.372 C 5.175 53.213,5.323 52.783,5.500 52.417 C 5.677 52.050,5.825 51.637,5.829 51.500 C 5.832 51.362,5.985 51.025,6.167 50.750 C 6.349 50.475,6.501 50.100,6.505 49.917 C 6.508 49.733,6.656 49.283,6.833 48.917 C 7.010 48.550,7.158 48.115,7.161 47.949 C 7.167 47.647,7.705 46.300,8.006 45.833 C 8.095 45.696,8.242 45.396,8.334 45.167 C 8.425 44.938,8.574 44.637,8.664 44.500 C 8.992 44.002,9.833 42.175,9.833 41.961 C 9.833 41.841,10.079 41.369,10.379 40.913 C 11.006 39.960,12.500 37.390,12.500 37.265 C 12.500 37.141,13.267 35.995,13.763 35.378 C 14.375 34.618,15.160 33.442,15.164 33.281 C 15.167 33.121,18.130 29.380,19.475 27.837 C 20.675 26.461,25.119 22.025,26.467 20.858 C 27.396 20.054,27.969 19.590,29.129 18.706 C 29.338 18.547,29.601 18.342,29.714 18.250 C 30.690 17.461,32.053 16.485,32.701 16.112 C 33.133 15.864,33.733 15.432,34.034 15.153 C 34.336 14.874,34.808 14.538,35.083 14.407 C 35.739 14.096,37.405 13.152,38.433 12.510 C 38.882 12.229,39.737 11.766,40.333 11.481 C 40.929 11.195,42.317 10.530,43.417 10.002 C 46.176 8.677,46.588 8.501,46.942 8.496 C 47.111 8.494,47.577 8.344,47.977 8.163 C 48.376 7.982,48.827 7.833,48.979 7.833 C 49.131 7.833,49.535 7.683,49.877 7.500 C 50.219 7.317,50.581 7.167,50.683 7.167 C 50.784 7.167,51.103 7.055,51.391 6.918 C 52.148 6.559,53.518 6.183,55.333 5.836 C 56.204 5.670,57.179 5.451,57.499 5.350 C 57.819 5.249,58.347 5.167,58.671 5.167 C 58.996 5.167,59.688 5.017,60.210 4.833 C 60.732 4.650,61.479 4.498,61.871 4.496 C 62.263 4.494,62.883 4.415,63.250 4.320 C 65.808 3.659,69.060 3.707,70.232 4.422 M93.417 4.849 C 94.058 5.020,94.886 5.161,95.257 5.163 C 95.627 5.165,96.348 5.276,96.859 5.409 C 97.370 5.542,98.399 5.727,99.147 5.821 C 99.894 5.915,100.637 6.062,100.798 6.148 C 100.959 6.234,101.464 6.380,101.920 6.472 C 102.860 6.663,104.092 7.070,105.102 7.525 C 105.478 7.695,105.913 7.833,106.068 7.833 C 106.223 7.833,106.552 7.937,106.800 8.063 C 107.047 8.190,107.513 8.343,107.833 8.404 C 108.514 8.534,109.532 8.940,111.500 9.867 C 113.030 10.588,113.351 10.732,115.000 11.439 C 115.596 11.695,116.421 12.137,116.833 12.421 C 117.246 12.705,118.071 13.185,118.667 13.488 C 120.352 14.345,120.879 14.640,120.985 14.784 C 121.039 14.857,121.207 14.992,121.358 15.083 C 121.509 15.175,121.982 15.494,122.408 15.792 C 122.834 16.090,123.245 16.333,123.320 16.333 C 123.530 16.333,125.667 18.021,125.667 18.187 C 125.667 18.267,125.751 18.333,125.855 18.333 C 126.050 18.333,128.270 19.925,128.364 20.132 C 128.393 20.197,129.052 20.775,129.828 21.417 C 133.123 24.139,139.702 31.349,140.810 33.451 C 140.916 33.653,141.364 34.290,141.805 34.867 C 142.479 35.748,143.727 37.720,144.211 38.667 C 144.281 38.804,144.558 39.254,144.826 39.667 C 145.384 40.528,145.683 41.107,147.400 44.667 C 148.085 46.087,148.700 47.475,148.766 47.750 C 148.832 48.025,148.979 48.400,149.093 48.583 C 149.207 48.767,149.354 49.179,149.420 49.500 C 149.485 49.821,149.605 50.166,149.687 50.268 C 149.990 50.646,151.210 54.397,151.660 56.333 C 151.863 57.204,152.202 58.667,152.416 59.583 C 153.115 62.590,153.334 63.731,153.488 65.167 C 153.572 65.946,153.732 67.377,153.845 68.347 C 154.212 71.521,153.060 73.626,150.397 74.645 L 149.470 75.000 118.500 75.000 L 87.530 75.000 86.614 74.650 C 85.509 74.227,84.332 73.186,83.805 72.167 L 83.417 71.417 83.417 39.583 L 83.417 7.750 83.864 6.914 C 84.464 5.794,85.727 4.773,86.917 4.446 C 87.623 4.252,92.247 4.539,93.417 4.849 M149.141 83.727 C 149.307 83.877,149.521 84.000,149.616 84.000 C 149.941 84.000,151.148 85.190,151.617 85.971 L 152.083 86.750 152.083 118.667 L 152.083 150.583 151.632 151.439 C 151.117 152.416,150.318 153.095,149.000 153.678 L 148.083 154.083 116.917 154.083 L 85.750 154.083 84.652 153.563 C 83.469 153.002,82.215 151.846,82.053 151.167 C 81.999 150.938,81.883 150.659,81.795 150.548 C 81.525 150.204,81.458 148.489,81.653 146.917 C 81.755 146.092,81.942 144.584,82.067 143.566 C 82.193 142.549,82.371 141.574,82.464 141.400 C 82.557 141.226,82.686 140.633,82.752 140.083 C 82.817 139.533,82.972 138.858,83.096 138.583 C 83.220 138.308,83.396 137.607,83.487 137.025 C 83.579 136.443,83.721 135.880,83.805 135.775 C 83.888 135.670,84.007 135.171,84.069 134.667 C 84.195 133.643,84.699 131.938,85.182 130.898 C 85.357 130.522,85.500 130.128,85.500 130.023 C 85.500 129.918,85.650 129.552,85.833 129.210 C 86.017 128.868,86.167 128.473,86.167 128.331 C 86.167 128.190,86.268 127.926,86.391 127.745 C 86.515 127.565,86.660 127.188,86.714 126.908 C 86.831 126.301,88.250 123.238,88.480 123.096 C 88.569 123.041,88.689 122.777,88.748 122.510 C 88.807 122.242,88.962 121.934,89.094 121.824 C 89.226 121.715,89.333 121.527,89.333 121.407 C 89.333 121.121,89.580 120.573,90.079 119.750 C 90.301 119.383,90.564 118.904,90.663 118.684 C 90.762 118.465,91.053 118.015,91.310 117.684 C 91.567 117.354,91.948 116.724,92.157 116.284 C 92.366 115.845,92.851 115.095,93.235 114.618 C 93.619 114.140,94.139 113.412,94.391 113.000 C 95.280 111.544,97.544 108.645,99.143 106.917 C 101.079 104.824,103.904 101.972,104.486 101.523 C 104.800 101.282,105.365 100.784,105.743 100.417 C 106.121 100.050,107.161 99.188,108.054 98.500 C 108.947 97.813,109.871 97.091,110.106 96.897 C 110.341 96.703,110.946 96.290,111.450 95.980 C 111.955 95.670,112.753 95.111,113.225 94.738 C 113.697 94.364,114.496 93.853,115.000 93.603 C 115.504 93.352,116.555 92.757,117.335 92.282 C 118.115 91.806,119.090 91.254,119.502 91.055 C 119.913 90.856,121.350 90.157,122.695 89.502 C 124.039 88.847,125.502 88.207,125.945 88.081 C 127.268 87.703,128.386 87.326,128.917 87.078 C 130.109 86.521,132.168 85.879,133.833 85.546 C 134.521 85.409,135.458 85.197,135.917 85.075 C 136.375 84.953,137.155 84.803,137.650 84.741 C 138.146 84.679,138.783 84.533,139.067 84.416 C 139.351 84.299,140.146 84.149,140.833 84.083 C 141.521 84.016,142.225 83.887,142.398 83.796 C 143.312 83.315,148.625 83.260,149.141 83.727 M70.327 85.250 C 71.390 85.833,72.204 86.826,72.621 88.049 C 73.047 89.300,73.168 149.308,72.747 151.120 C 72.080 153.997,70.472 155.259,67.500 155.238 C 64.959 155.219,60.084 154.488,57.000 153.662 C 56.679 153.576,55.592 153.313,54.583 153.079 C 52.478 152.589,50.640 152.060,49.917 151.736 C 49.329 151.473,46.968 150.585,45.680 150.142 C 44.027 149.574,38.801 146.898,36.358 145.369 C 36.024 145.160,35.525 144.880,35.250 144.747 C 34.975 144.614,34.450 144.283,34.083 144.013 C 33.717 143.742,32.817 143.111,32.083 142.610 C 30.839 141.760,29.748 140.955,29.171 140.460 C 29.036 140.345,28.286 139.724,27.504 139.081 C 25.366 137.321,24.952 136.939,22.592 134.535 C 20.026 131.923,18.536 130.300,17.983 129.515 C 17.763 129.202,17.405 128.752,17.188 128.515 C 16.970 128.278,16.614 127.821,16.397 127.500 C 16.180 127.179,15.627 126.392,15.168 125.750 C 14.709 125.109,14.333 124.535,14.333 124.475 C 14.333 124.415,14.090 124.093,13.792 123.760 C 13.333 123.247,12.505 121.906,11.830 120.583 C 11.737 120.400,11.443 119.912,11.178 119.500 C 10.647 118.675,10.395 118.183,8.750 114.750 C 7.274 111.670,6.889 110.717,6.500 109.181 C 6.421 108.867,6.247 108.380,6.114 108.097 C 5.481 106.751,5.167 105.970,5.167 105.746 C 5.167 105.612,5.022 105.070,4.845 104.542 C 4.668 104.015,4.472 103.171,4.409 102.667 C 4.346 102.162,4.229 101.625,4.149 101.472 C 4.068 101.319,3.925 100.649,3.831 99.985 C 3.737 99.320,3.591 98.693,3.506 98.591 C 3.422 98.489,3.278 97.805,3.185 97.071 C 3.093 96.337,2.936 95.519,2.835 95.254 C 2.578 94.579,2.279 90.316,2.391 88.937 C 2.550 86.986,4.100 85.218,6.000 84.824 C 6.321 84.757,20.721 84.713,38.000 84.726 L 69.417 84.750 70.327 85.250 M216.917 89.692 C 217.192 89.836,217.734 90.002,218.123 90.062 C 218.842 90.172,219.369 90.369,221.000 91.135 C 222.310 91.751,225.040 93.873,225.827 94.887 C 226.196 95.362,226.591 95.860,226.705 95.994 C 227.324 96.719,227.924 97.818,228.667 99.583 C 229.408 101.344,229.883 104.027,229.892 106.500 C 229.934 117.997,220.715 125.759,209.490 123.677 C 206.418 123.107,202.962 121.392,201.250 119.586 C 198.853 117.060,198.085 115.821,196.690 112.237 C 195.703 109.700,195.648 103.143,196.598 101.305 C 196.728 101.054,196.833 100.760,196.833 100.649 C 196.833 100.539,197.032 100.029,197.275 99.516 C 197.518 99.003,197.919 98.133,198.167 97.582 C 199.601 94.390,203.822 91.099,207.778 90.090 C 208.252 89.969,208.740 89.808,208.862 89.732 C 209.614 89.267,216.041 89.235,216.917 89.692 M306.500 89.708 C 306.821 89.855,307.646 90.140,308.333 90.343 C 311.147 91.173,311.787 92.000,310.909 93.667 C 310.788 93.896,310.462 94.583,310.185 95.194 C 309.347 97.040,309.063 97.125,307.288 96.069 C 301.291 92.500,293.738 95.681,291.820 102.583 C 290.735 106.490,291.653 112.586,293.634 114.640 C 293.881 114.895,294.348 115.400,294.672 115.761 C 297.037 118.399,302.506 119.248,306.417 117.583 C 306.692 117.466,307.104 117.317,307.333 117.251 C 307.563 117.186,307.923 117.023,308.134 116.890 C 309.448 116.060,310.568 117.445,310.953 120.375 C 311.320 123.173,301.449 124.914,295.908 123.028 C 293.077 122.065,289.325 119.212,288.090 117.083 C 287.824 116.625,287.373 115.912,287.086 115.500 C 286.525 114.692,285.926 113.205,285.676 112.000 C 285.591 111.587,285.429 110.912,285.317 110.500 C 285.000 109.334,285.044 103.291,285.376 102.333 C 285.520 101.921,285.690 101.246,285.755 100.833 C 285.891 99.967,286.744 98.087,287.494 97.000 C 287.779 96.587,288.282 95.851,288.613 95.363 C 288.945 94.875,289.748 94.057,290.399 93.546 C 291.051 93.035,291.658 92.535,291.750 92.434 C 292.422 91.692,294.815 90.574,296.778 90.084 C 297.252 89.966,297.740 89.808,297.862 89.732 C 298.622 89.262,305.478 89.243,306.500 89.708 M180.433 90.000 C 182.101 90.101,183.345 90.258,183.720 90.415 C 184.051 90.553,184.487 90.667,184.687 90.667 C 187.279 90.667,190.320 94.720,190.331 98.191 C 190.339 100.698,188.619 104.599,187.313 105.034 C 186.954 105.154,187.465 105.796,188.082 106.000 C 188.404 106.106,188.667 106.254,188.667 106.328 C 188.667 106.403,188.836 106.506,189.042 106.558 C 190.161 106.839,191.636 109.111,192.073 111.226 C 192.943 115.438,191.383 119.950,188.513 121.520 C 185.053 123.413,185.204 123.388,176.910 123.459 L 169.903 123.519 169.576 123.159 C 169.258 122.807,169.249 122.417,169.206 106.790 C 169.157 89.099,169.098 90.091,170.205 89.954 C 171.338 89.814,177.857 89.843,180.433 90.000 M240.119 90.214 C 240.399 90.494,240.419 91.313,240.460 104.131 C 240.499 116.671,240.525 117.767,240.783 117.958 C 240.988 118.111,242.083 118.167,244.854 118.167 C 249.055 118.167,249.405 118.232,249.758 119.077 C 250.134 119.978,250.081 122.281,249.668 122.958 L 249.338 123.500 242.262 123.500 L 235.186 123.500 234.926 123.130 C 234.575 122.629,234.526 90.489,234.875 90.205 C 235.469 89.723,239.635 89.730,240.119 90.214 M270.730 90.064 C 271.829 90.523,271.816 94.253,270.714 94.765 C 270.551 94.841,268.767 94.944,266.750 94.993 L 263.083 95.083 263.000 108.941 C 262.901 125.422,263.295 123.501,260.016 123.497 C 258.770 123.496,257.667 123.440,257.567 123.372 C 257.017 123.005,257.000 122.581,257.000 108.961 C 257.000 98.636,256.952 95.352,256.800 95.200 C 256.659 95.059,255.686 94.999,253.508 94.996 C 248.656 94.990,248.667 94.996,248.667 92.239 C 248.667 90.308,248.727 90.123,249.417 89.954 C 250.312 89.734,270.186 89.837,270.730 90.064 M356.355 90.012 C 357.767 90.111,359.157 90.297,359.472 90.429 C 359.785 90.560,360.221 90.667,360.442 90.667 C 362.067 90.667,365.544 93.273,366.467 95.184 C 368.932 100.283,367.307 106.398,362.717 109.298 C 361.826 109.860,361.838 110.606,362.757 111.667 C 362.876 111.804,363.248 112.436,363.584 113.070 C 363.920 113.705,364.628 114.942,365.158 115.820 C 365.688 116.698,366.333 117.829,366.593 118.333 C 366.852 118.837,367.368 119.701,367.740 120.252 C 368.866 121.920,369.102 122.569,368.769 123.078 L 368.492 123.500 365.828 123.500 C 363.273 123.500,363.151 123.485,362.840 123.125 C 362.285 122.484,360.943 120.169,359.965 118.167 C 359.450 117.112,358.837 115.968,358.602 115.624 C 358.368 115.280,357.980 114.568,357.742 114.041 C 356.378 111.033,356.263 110.938,354.185 111.089 C 351.813 111.261,352.000 110.752,352.000 117.015 C 352.000 122.200,351.925 123.066,351.448 123.369 C 350.935 123.695,346.897 123.513,346.567 123.149 C 346.155 122.693,346.060 90.780,346.471 90.285 C 346.858 89.818,351.693 89.685,356.355 90.012 M392.452 90.214 C 392.689 90.450,392.762 90.853,392.807 92.177 C 392.902 94.913,392.749 94.998,387.728 94.999 C 384.389 95.000,384.372 95.002,384.272 95.375 C 384.216 95.581,384.170 101.827,384.169 109.255 C 384.166 125.335,384.526 123.500,381.379 123.500 C 378.114 123.500,378.503 125.392,378.483 109.433 C 378.474 101.999,378.415 95.729,378.351 95.500 L 378.236 95.083 374.576 95.000 C 369.801 94.891,370.000 95.010,370.000 92.268 C 370.000 90.487,370.126 90.098,370.750 89.948 C 371.870 89.677,392.165 89.926,392.452 90.214 M328.735 90.513 C 328.972 90.795,329.167 91.094,329.167 91.177 C 329.167 91.329,330.372 93.840,335.814 105.030 C 336.558 106.559,337.167 107.859,337.167 107.919 C 337.167 108.053,339.313 112.353,339.494 112.583 C 339.567 112.675,339.682 112.938,339.750 113.167 C 339.818 113.396,340.460 114.783,341.177 116.250 C 345.013 124.100,345.034 123.500,340.920 123.500 C 337.618 123.500,337.961 123.744,336.437 120.308 C 336.288 119.973,336.167 119.626,336.167 119.537 C 336.167 119.154,335.282 117.484,334.998 117.332 C 334.807 117.230,332.046 117.167,327.790 117.167 L 320.891 117.167 320.548 117.542 C 320.161 117.964,319.635 119.050,318.753 121.247 C 317.828 123.553,317.917 123.500,314.960 123.500 C 310.958 123.500,310.961 123.533,314.431 116.833 C 314.740 116.237,314.994 115.664,314.996 115.559 C 315.001 115.321,316.470 112.342,316.751 112.000 C 316.864 111.862,317.149 111.263,317.385 110.667 C 317.868 109.447,318.223 108.650,318.612 107.917 C 319.503 106.238,320.333 104.568,320.333 104.456 C 320.333 104.237,321.688 101.432,321.923 101.166 C 322.044 101.028,322.370 100.353,322.646 99.666 C 323.209 98.263,323.556 97.484,323.946 96.750 C 324.840 95.065,325.667 93.401,325.667 93.288 C 325.667 93.001,326.882 90.618,327.181 90.319 C 327.653 89.847,328.236 89.919,328.735 90.513 M210.250 94.915 C 201.792 96.790,199.112 109.552,205.831 115.958 C 208.108 118.129,213.244 119.347,215.755 118.310 C 216.119 118.160,216.979 117.826,217.667 117.568 C 223.091 115.531,225.418 106.776,222.293 100.167 C 220.334 96.024,215.249 93.807,210.250 94.915 M175.367 95.033 C 175.133 95.267,175.080 103.271,175.309 103.633 C 175.492 103.922,180.262 103.822,181.333 103.508 C 183.209 102.958,184.250 101.319,184.250 98.917 C 184.250 96.873,184.258 96.891,182.736 95.710 C 181.707 94.913,176.011 94.389,175.367 95.033 M352.200 95.033 C 351.939 95.294,351.913 105.527,352.173 106.011 C 352.388 106.413,354.993 106.459,357.000 106.096 C 363.392 104.939,363.806 96.352,357.533 95.021 C 356.321 94.764,352.461 94.773,352.200 95.033 M327.560 101.543 C 327.365 101.840,327.004 102.608,326.759 103.250 C 326.513 103.892,325.944 105.175,325.494 106.102 C 325.044 107.028,324.440 108.378,324.152 109.102 C 323.864 109.825,323.572 110.492,323.502 110.583 C 323.432 110.675,323.341 110.994,323.300 111.292 L 323.224 111.833 327.957 111.833 L 332.689 111.833 332.571 111.458 C 332.506 111.252,332.131 110.400,331.736 109.565 C 331.341 108.730,330.965 107.830,330.899 107.565 C 330.834 107.300,330.652 106.821,330.495 106.500 C 329.019 103.474,328.167 101.551,328.167 101.246 C 328.167 100.852,327.944 100.961,327.560 101.543 M175.667 108.621 C 175.199 108.799,175.172 109.083,175.169 113.792 L 175.167 118.500 178.375 118.499 C 183.195 118.497,184.669 117.934,185.792 115.667 C 186.929 113.368,186.212 110.596,184.167 109.383 C 182.946 108.658,176.975 108.124,175.667 108.621 " stroke="none" fill="#ffffff" fill-rule="evenodd"></path><path id="path2" d="M64.833 4.006 C 64.329 4.084,63.617 4.225,63.250 4.320 C 62.883 4.415,62.263 4.494,61.871 4.496 C 61.479 4.498,60.732 4.650,60.210 4.833 C 59.688 5.017,58.996 5.167,58.671 5.167 C 58.347 5.167,57.819 5.249,57.499 5.350 C 57.179 5.451,56.204 5.670,55.333 5.836 C 53.518 6.183,52.148 6.559,51.391 6.918 C 51.103 7.055,50.784 7.167,50.683 7.167 C 50.581 7.167,50.219 7.317,49.877 7.500 C 49.535 7.683,49.131 7.833,48.979 7.833 C 48.827 7.833,48.376 7.982,47.977 8.163 C 47.577 8.344,47.111 8.494,46.942 8.496 C 46.588 8.501,46.176 8.677,43.417 10.002 C 42.317 10.530,40.929 11.195,40.333 11.481 C 39.737 11.766,38.882 12.229,38.433 12.510 C 37.405 13.152,35.739 14.096,35.083 14.407 C 34.808 14.538,34.336 14.874,34.034 15.153 C 33.733 15.432,33.133 15.864,32.701 16.112 C 32.053 16.485,30.690 17.461,29.714 18.250 C 29.601 18.342,29.338 18.547,29.129 18.706 C 27.969 19.590,27.396 20.054,26.467 20.858 C 25.119 22.025,20.675 26.461,19.475 27.837 C 18.130 29.380,15.167 33.121,15.164 33.281 C 15.160 33.442,14.375 34.618,13.763 35.378 C 13.267 35.995,12.500 37.141,12.500 37.265 C 12.500 37.390,11.006 39.960,10.379 40.913 C 10.079 41.369,9.833 41.841,9.833 41.961 C 9.833 42.175,8.992 44.002,8.664 44.500 C 8.574 44.637,8.425 44.938,8.334 45.167 C 8.242 45.396,8.095 45.696,8.006 45.833 C 7.705 46.300,7.167 47.647,7.161 47.949 C 7.158 48.115,7.010 48.550,6.833 48.917 C 6.656 49.283,6.508 49.733,6.505 49.917 C 6.501 50.100,6.349 50.475,6.167 50.750 C 5.985 51.025,5.832 51.362,5.829 51.500 C 5.825 51.637,5.677 52.050,5.500 52.417 C 5.323 52.783,5.175 53.213,5.172 53.372 C 5.169 53.530,5.054 53.943,4.917 54.288 C 4.686 54.870,4.422 56.069,3.971 58.583 C 3.872 59.133,3.651 60.015,3.479 60.542 C 3.307 61.070,3.167 61.747,3.167 62.048 C 3.167 62.348,3.056 63.004,2.920 63.505 C 2.785 64.007,2.596 65.392,2.501 66.583 C 2.406 67.775,2.300 68.877,2.266 69.031 C 1.886 70.740,3.364 73.071,5.494 74.123 L 6.250 74.497 37.583 74.498 L 68.917 74.500 69.917 74.009 C 71.596 73.185,72.212 72.430,72.683 70.613 C 73.174 68.725,73.167 9.581,72.676 7.690 C 71.862 4.557,69.237 3.323,64.833 4.006 M69.702 4.496 C 70.502 4.850,71.608 5.933,72.111 6.856 C 72.490 7.551,72.696 69.624,72.323 70.917 C 71.915 72.331,70.766 73.443,69.189 73.949 C 67.613 74.454,6.959 74.412,5.786 73.905 C 2.898 72.657,2.044 70.267,2.835 65.643 C 2.934 65.060,3.119 63.946,3.245 63.167 C 3.371 62.387,3.583 61.300,3.716 60.750 C 3.849 60.200,4.122 59.000,4.322 58.083 C 5.058 54.713,5.973 51.524,6.328 51.086 C 6.404 50.993,6.544 50.654,6.640 50.333 C 7.839 46.335,11.693 38.662,14.217 35.250 C 14.624 34.700,15.053 34.063,15.171 33.833 C 15.378 33.432,16.780 31.574,18.317 29.667 C 21.948 25.161,28.416 19.198,32.531 16.565 C 33.201 16.136,34.050 15.546,34.417 15.254 C 34.783 14.962,35.496 14.515,36.000 14.260 C 36.504 14.005,37.035 13.692,37.180 13.565 C 37.325 13.437,37.504 13.333,37.579 13.333 C 37.654 13.333,38.118 13.066,38.609 12.740 C 39.101 12.414,39.934 11.955,40.460 11.722 C 40.986 11.488,42.347 10.845,43.483 10.294 C 44.620 9.743,46.570 8.933,47.817 8.495 C 49.063 8.056,50.608 7.505,51.250 7.269 C 52.420 6.839,54.543 6.299,57.500 5.678 C 58.371 5.495,59.796 5.196,60.667 5.013 C 61.538 4.830,63.188 4.565,64.333 4.423 C 65.479 4.281,66.604 4.135,66.833 4.097 C 67.591 3.971,68.940 4.159,69.702 4.496 M86.917 4.446 C 85.727 4.773,84.464 5.794,83.864 6.914 L 83.417 7.750 83.417 39.583 L 83.417 71.417 83.805 72.167 C 84.332 73.186,85.509 74.227,86.614 74.650 L 87.530 75.000 118.500 75.000 L 149.470 75.000 150.397 74.645 C 153.060 73.626,154.212 71.521,153.845 68.347 C 153.732 67.377,153.572 65.946,153.488 65.167 C 153.334 63.731,153.115 62.590,152.416 59.583 C 152.202 58.667,151.863 57.204,151.660 56.333 C 151.210 54.397,149.990 50.646,149.687 50.268 C 149.605 50.166,149.485 49.821,149.420 49.500 C 149.354 49.179,149.207 48.767,149.093 48.583 C 148.979 48.400,148.832 48.025,148.766 47.750 C 148.700 47.475,148.085 46.087,147.400 44.667 C 145.683 41.107,145.384 40.528,144.826 39.667 C 144.558 39.254,144.281 38.804,144.211 38.667 C 143.727 37.720,142.479 35.748,141.805 34.867 C 141.364 34.290,140.916 33.653,140.810 33.451 C 139.702 31.349,133.123 24.139,129.828 21.417 C 129.052 20.775,128.393 20.197,128.364 20.132 C 128.270 19.925,126.050 18.333,125.855 18.333 C 125.751 18.333,125.667 18.267,125.667 18.187 C 125.667 18.021,123.530 16.333,123.320 16.333 C 123.245 16.333,122.834 16.090,122.408 15.792 C 121.982 15.494,121.509 15.175,121.358 15.083 C 121.207 14.992,121.039 14.857,120.985 14.784 C 120.879 14.640,120.352 14.345,118.667 13.488 C 118.071 13.185,117.246 12.705,116.833 12.421 C 116.421 12.137,115.596 11.695,115.000 11.439 C 113.351 10.732,113.030 10.588,111.500 9.867 C 109.532 8.940,108.514 8.534,107.833 8.404 C 107.513 8.343,107.047 8.190,106.800 8.063 C 106.552 7.937,106.223 7.833,106.068 7.833 C 105.913 7.833,105.478 7.695,105.102 7.525 C 104.092 7.070,102.860 6.663,101.920 6.472 C 101.464 6.380,100.959 6.234,100.798 6.148 C 100.637 6.062,99.894 5.915,99.147 5.821 C 98.399 5.727,97.370 5.542,96.859 5.409 C 96.348 5.276,95.627 5.165,95.257 5.163 C 94.886 5.161,94.058 5.020,93.417 4.849 C 92.247 4.539,87.623 4.252,86.917 4.446 M92.667 4.995 C 96.456 5.618,99.815 6.238,101.250 6.580 C 101.892 6.732,103.054 7.079,103.833 7.350 C 104.612 7.622,106.375 8.222,107.750 8.684 C 109.125 9.147,110.662 9.737,111.167 9.997 C 112.201 10.529,113.482 11.116,114.833 11.676 C 115.337 11.885,115.862 12.147,116.000 12.259 C 116.302 12.504,119.635 14.392,120.030 14.541 C 120.184 14.600,120.877 15.066,121.569 15.578 C 122.261 16.090,122.972 16.563,123.149 16.629 C 123.636 16.812,127.599 19.889,130.214 22.114 C 133.059 24.536,139.654 31.909,140.621 33.750 C 140.765 34.025,141.251 34.737,141.700 35.333 C 143.782 38.093,147.354 44.858,148.742 48.667 C 149.160 49.813,149.570 50.871,149.655 51.020 C 150.016 51.653,150.705 53.964,151.413 56.917 C 151.831 58.658,152.255 60.383,152.356 60.750 C 152.456 61.117,152.646 62.054,152.777 62.833 C 152.908 63.612,153.093 64.700,153.190 65.250 C 153.498 67.015,153.464 71.331,153.136 71.928 C 152.725 72.678,151.526 73.787,150.667 74.212 L 149.917 74.583 119.167 74.633 C 96.860 74.669,88.147 74.631,87.434 74.495 C 85.978 74.217,84.757 73.293,84.026 71.917 L 83.583 71.083 83.583 39.667 L 83.583 8.250 83.967 7.417 C 85.219 4.699,87.318 4.115,92.667 4.995 M144.231 83.495 C 143.396 83.570,142.571 83.705,142.398 83.796 C 142.225 83.887,141.521 84.016,140.833 84.083 C 140.146 84.149,139.351 84.299,139.067 84.416 C 138.783 84.533,138.146 84.679,137.650 84.741 C 137.155 84.803,136.375 84.953,135.917 85.075 C 135.458 85.197,134.521 85.409,133.833 85.546 C 132.168 85.879,130.109 86.521,128.917 87.078 C 128.386 87.326,127.268 87.703,125.945 88.081 C 125.502 88.207,124.039 88.847,122.695 89.502 C 121.350 90.157,119.913 90.856,119.502 91.055 C 119.090 91.254,118.115 91.806,117.335 92.282 C 116.555 92.757,115.504 93.352,115.000 93.603 C 114.496 93.853,113.697 94.364,113.225 94.738 C 112.753 95.111,111.955 95.670,111.450 95.980 C 110.946 96.290,110.341 96.703,110.106 96.897 C 109.871 97.091,108.947 97.813,108.054 98.500 C 107.161 99.188,106.121 100.050,105.743 100.417 C 105.365 100.784,104.800 101.282,104.486 101.523 C 103.904 101.972,101.079 104.824,99.143 106.917 C 97.544 108.645,95.280 111.544,94.391 113.000 C 94.139 113.412,93.619 114.140,93.235 114.618 C 92.851 115.095,92.366 115.845,92.157 116.284 C 91.948 116.724,91.567 117.354,91.310 117.684 C 91.053 118.015,90.762 118.465,90.663 118.684 C 90.564 118.904,90.301 119.383,90.079 119.750 C 89.580 120.573,89.333 121.121,89.333 121.407 C 89.333 121.527,89.226 121.715,89.094 121.824 C 88.962 121.934,88.807 122.242,88.748 122.510 C 88.689 122.777,88.569 123.041,88.480 123.096 C 88.250 123.238,86.831 126.301,86.714 126.908 C 86.660 127.188,86.515 127.565,86.391 127.745 C 86.268 127.926,86.167 128.190,86.167 128.331 C 86.167 128.473,86.017 128.868,85.833 129.210 C 85.650 129.552,85.500 129.918,85.500 130.023 C 85.500 130.128,85.357 130.522,85.182 130.898 C 84.699 131.938,84.195 133.643,84.069 134.667 C 84.007 135.171,83.888 135.670,83.805 135.775 C 83.721 135.880,83.579 136.443,83.487 137.025 C 83.396 137.607,83.220 138.308,83.096 138.583 C 82.972 138.858,82.817 139.533,82.752 140.083 C 82.686 140.633,82.557 141.226,82.464 141.400 C 82.371 141.574,82.193 142.549,82.067 143.566 C 81.942 144.584,81.755 146.092,81.653 146.917 C 81.458 148.489,81.525 150.204,81.795 150.548 C 81.883 150.659,81.999 150.938,82.053 151.167 C 82.215 151.846,83.469 153.002,84.652 153.563 L 85.750 154.083 116.917 154.083 L 148.083 154.083 149.000 153.678 C 150.318 153.095,151.117 152.416,151.632 151.439 L 152.083 150.583 152.083 118.667 L 152.083 86.750 151.617 85.971 C 151.148 85.190,149.941 84.000,149.616 84.000 C 149.521 84.000,149.307 83.877,149.141 83.727 C 148.775 83.396,146.538 83.290,144.231 83.495 M149.083 84.060 C 150.175 84.570,151.207 85.712,151.602 86.846 C 152.109 88.304,152.092 149.067,151.583 150.568 C 151.149 151.850,150.210 152.826,148.903 153.353 L 147.917 153.750 116.917 153.750 C 82.271 153.750,85.407 153.861,83.658 152.577 C 82.701 151.874,82.280 151.229,82.003 150.039 C 81.665 148.587,82.412 142.050,83.255 139.083 C 83.576 137.955,83.988 136.306,84.271 135.016 C 84.672 133.194,84.998 132.162,85.910 129.833 C 86.394 128.596,86.921 127.208,87.080 126.750 C 87.519 125.487,90.556 119.396,91.359 118.167 C 91.749 117.571,92.229 116.783,92.426 116.417 C 95.655 110.420,105.471 100.158,111.917 96.041 C 112.558 95.631,113.233 95.161,113.417 94.996 C 113.683 94.757,115.869 93.448,118.917 91.703 C 119.985 91.091,124.943 88.808,126.000 88.442 C 126.688 88.203,127.775 87.815,128.417 87.579 C 131.398 86.483,132.365 86.178,133.917 85.843 C 134.833 85.645,136.033 85.376,136.583 85.246 C 137.133 85.115,137.883 84.963,138.250 84.907 C 138.617 84.851,139.179 84.724,139.500 84.625 C 142.231 83.780,147.786 83.453,149.083 84.060 M6.000 84.824 C 4.100 85.218,2.550 86.986,2.391 88.937 C 2.279 90.316,2.578 94.579,2.835 95.254 C 2.936 95.519,3.093 96.337,3.185 97.071 C 3.278 97.805,3.422 98.489,3.506 98.591 C 3.591 98.693,3.737 99.320,3.831 99.985 C 3.925 100.649,4.068 101.319,4.149 101.472 C 4.229 101.625,4.346 102.162,4.409 102.667 C 4.472 103.171,4.668 104.015,4.845 104.542 C 5.022 105.070,5.167 105.612,5.167 105.746 C 5.167 105.970,5.481 106.751,6.114 108.097 C 6.247 108.380,6.421 108.867,6.500 109.181 C 6.889 110.717,7.274 111.670,8.750 114.750 C 10.395 118.183,10.647 118.675,11.178 119.500 C 11.443 119.912,11.737 120.400,11.830 120.583 C 12.505 121.906,13.333 123.247,13.792 123.760 C 14.090 124.093,14.333 124.415,14.333 124.475 C 14.333 124.535,14.709 125.109,15.168 125.750 C 15.627 126.392,16.180 127.179,16.397 127.500 C 16.614 127.821,16.970 128.278,17.188 128.515 C 17.405 128.752,17.763 129.202,17.983 129.515 C 18.536 130.300,20.026 131.923,22.592 134.535 C 24.952 136.939,25.366 137.321,27.504 139.081 C 28.286 139.724,29.036 140.345,29.171 140.460 C 29.748 140.955,30.839 141.760,32.083 142.610 C 32.817 143.111,33.717 143.742,34.083 144.013 C 34.450 144.283,34.975 144.614,35.250 144.747 C 35.525 144.880,36.024 145.160,36.358 145.369 C 38.801 146.898,44.027 149.574,45.680 150.142 C 46.968 150.585,49.329 151.473,49.917 151.736 C 50.640 152.060,52.478 152.589,54.583 153.079 C 55.592 153.313,56.679 153.576,57.000 153.662 C 60.084 154.488,64.959 155.219,67.500 155.238 C 70.472 155.259,72.080 153.997,72.747 151.120 C 73.168 149.308,73.047 89.300,72.621 88.049 C 72.204 86.826,71.390 85.833,70.327 85.250 L 69.417 84.750 38.000 84.726 C 20.721 84.713,6.321 84.757,6.000 84.824 M69.870 85.395 C 70.809 85.817,71.370 86.345,72.015 87.417 L 72.417 88.083 72.417 119.917 L 72.417 151.750 71.942 152.543 C 70.038 155.722,66.592 155.692,53.334 152.381 C 52.005 152.050,50.092 151.448,49.084 151.044 C 48.075 150.640,46.575 150.061,45.750 149.758 C 44.119 149.157,38.178 146.196,36.988 145.390 C 36.582 145.116,35.800 144.639,35.250 144.332 C 34.700 144.024,33.950 143.537,33.583 143.250 C 33.217 142.962,32.480 142.443,31.946 142.096 C 28.238 139.688,20.747 132.665,18.065 129.083 C 17.722 128.625,17.186 127.962,16.875 127.611 C 16.563 127.259,15.865 126.296,15.323 125.471 C 14.781 124.645,14.112 123.685,13.837 123.338 C 13.561 122.990,13.124 122.303,12.864 121.811 C 12.605 121.319,12.174 120.579,11.906 120.167 C 11.288 119.213,10.381 117.564,10.119 116.919 C 10.008 116.645,9.518 115.633,9.031 114.670 C 8.177 112.983,7.490 111.374,7.249 110.500 C 7.185 110.271,6.729 109.055,6.233 107.798 C 5.738 106.541,5.333 105.400,5.333 105.262 C 5.333 105.124,5.219 104.676,5.080 104.265 C 4.940 103.854,4.722 102.970,4.596 102.301 C 4.469 101.631,4.281 100.746,4.179 100.333 C 1.793 90.702,2.060 87.012,5.255 85.428 L 6.083 85.018 37.537 85.009 L 68.990 85.000 69.870 85.395 M209.750 89.476 C 209.383 89.542,208.984 89.657,208.862 89.732 C 208.740 89.808,208.252 89.969,207.778 90.090 C 203.822 91.099,199.601 94.390,198.167 97.582 C 197.919 98.133,197.518 99.003,197.275 99.516 C 197.032 100.029,196.833 100.539,196.833 100.649 C 196.833 100.760,196.728 101.054,196.598 101.305 C 195.648 103.143,195.703 109.700,196.690 112.237 C 198.085 115.821,198.853 117.060,201.250 119.586 C 207.381 126.051,220.072 125.280,225.985 118.083 C 229.947 113.263,231.094 105.349,228.667 99.583 C 227.924 97.818,227.324 96.719,226.705 95.994 C 226.591 95.860,226.196 95.362,225.827 94.887 C 224.324 92.951,220.226 90.384,218.123 90.062 C 217.734 90.002,217.192 89.836,216.917 89.692 C 216.368 89.405,211.048 89.245,209.750 89.476 M298.750 89.476 C 298.383 89.541,297.984 89.657,297.862 89.732 C 297.740 89.808,297.252 89.966,296.778 90.084 C 294.815 90.574,292.422 91.692,291.750 92.434 C 291.658 92.535,291.051 93.035,290.399 93.546 C 289.748 94.057,288.945 94.875,288.613 95.363 C 288.282 95.851,287.779 96.587,287.494 97.000 C 286.744 98.087,285.891 99.967,285.755 100.833 C 285.690 101.246,285.520 101.921,285.376 102.333 C 285.044 103.291,285.000 109.334,285.317 110.500 C 285.429 110.912,285.591 111.587,285.676 112.000 C 285.926 113.205,286.525 114.692,287.086 115.500 C 287.373 115.912,287.824 116.625,288.090 117.083 C 289.325 119.212,293.077 122.065,295.908 123.028 C 301.449 124.914,311.320 123.173,310.953 120.375 C 310.568 117.445,309.448 116.060,308.134 116.890 C 307.923 117.023,307.563 117.186,307.333 117.251 C 307.104 117.317,306.692 117.466,306.417 117.583 C 302.506 119.248,297.037 118.399,294.672 115.761 C 294.348 115.400,293.881 114.895,293.634 114.640 C 291.653 112.586,290.735 106.490,291.820 102.583 C 293.738 95.681,301.291 92.500,307.288 96.069 C 309.063 97.125,309.347 97.040,310.185 95.194 C 310.462 94.583,310.788 93.896,310.909 93.667 C 311.787 92.000,311.147 91.173,308.333 90.343 C 307.646 90.140,306.821 89.855,306.500 89.708 C 305.860 89.417,300.052 89.242,298.750 89.476 M216.583 89.916 C 220.945 91.197,222.539 92.051,224.829 94.336 C 233.661 103.149,229.556 120.022,217.858 122.995 C 205.482 126.140,195.164 117.330,196.325 104.610 C 196.834 99.029,200.607 93.276,204.997 91.387 C 209.162 89.594,213.578 89.033,216.583 89.916 M307.337 90.337 C 311.238 91.590,311.374 91.810,310.029 94.703 C 309.135 96.625,308.876 96.696,306.997 95.525 C 303.612 93.414,297.780 94.119,294.718 97.007 C 289.005 102.396,289.924 114.049,296.333 117.476 C 299.445 119.140,303.919 119.118,307.760 117.419 C 309.459 116.668,309.614 116.775,310.317 119.203 C 310.814 120.914,310.683 121.199,309.014 122.034 C 306.189 123.447,300.800 123.904,297.269 123.029 C 288.465 120.848,283.377 111.246,285.905 101.583 C 288.281 92.503,298.078 87.363,307.337 90.337 M170.205 89.954 C 169.098 90.091,169.157 89.099,169.206 106.790 C 169.249 122.417,169.258 122.807,169.576 123.159 L 169.903 123.519 176.910 123.459 C 185.204 123.388,185.053 123.413,188.513 121.520 C 191.383 119.950,192.943 115.438,192.073 111.226 C 191.636 109.111,190.161 106.839,189.042 106.558 C 188.836 106.506,188.667 106.403,188.667 106.328 C 188.667 106.254,188.404 106.106,188.082 106.000 C 187.465 105.796,186.954 105.154,187.313 105.034 C 188.619 104.599,190.339 100.698,190.331 98.191 C 190.320 94.720,187.279 90.667,184.687 90.667 C 184.487 90.667,184.051 90.553,183.720 90.415 C 182.673 89.977,172.750 89.639,170.205 89.954 M235.417 89.946 C 234.635 90.157,234.667 89.449,234.667 106.567 C 234.667 120.952,234.696 122.800,234.926 123.130 L 235.186 123.500 242.262 123.500 L 249.338 123.500 249.668 122.958 C 250.081 122.281,250.134 119.978,249.758 119.077 C 249.405 118.232,249.055 118.167,244.854 118.167 C 242.083 118.167,240.988 118.111,240.783 117.958 C 240.525 117.767,240.499 116.671,240.460 104.131 C 240.419 91.313,240.399 90.494,240.119 90.214 C 239.818 89.914,236.283 89.712,235.417 89.946 M249.417 89.954 C 248.727 90.123,248.667 90.308,248.667 92.239 C 248.667 94.996,248.656 94.990,253.508 94.996 C 255.686 94.999,256.659 95.059,256.800 95.200 C 256.952 95.352,257.000 98.636,257.000 108.961 C 257.000 122.581,257.017 123.005,257.567 123.372 C 257.667 123.440,258.770 123.496,260.016 123.497 C 263.295 123.501,262.901 125.422,263.000 108.941 L 263.083 95.083 266.750 94.993 C 271.384 94.879,271.502 94.820,271.498 92.633 C 271.495 90.786,271.358 90.326,270.730 90.064 C 270.186 89.837,250.312 89.734,249.417 89.954 M347.137 89.952 C 346.205 90.094,346.250 89.251,346.250 106.675 C 346.250 125.766,345.871 123.501,349.067 123.497 C 352.215 123.494,352.000 123.968,352.000 117.015 C 352.000 110.752,351.813 111.261,354.185 111.089 C 356.263 110.938,356.378 111.033,357.742 114.041 C 357.980 114.568,358.368 115.280,358.602 115.624 C 358.837 115.968,359.450 117.112,359.965 118.167 C 360.943 120.169,362.285 122.484,362.840 123.125 C 363.151 123.485,363.273 123.500,365.828 123.500 L 368.492 123.500 368.769 123.078 C 369.102 122.569,368.866 121.920,367.740 120.252 C 367.368 119.701,366.852 118.837,366.593 118.333 C 366.333 117.829,365.688 116.698,365.158 115.820 C 364.628 114.942,363.920 113.705,363.584 113.070 C 363.248 112.436,362.876 111.804,362.757 111.667 C 361.838 110.606,361.826 109.860,362.717 109.298 C 367.307 106.398,368.932 100.283,366.467 95.184 C 365.544 93.273,362.067 90.667,360.442 90.667 C 360.221 90.667,359.785 90.560,359.472 90.429 C 358.429 89.993,349.199 89.636,347.137 89.952 M370.750 89.948 C 370.126 90.098,370.000 90.487,370.000 92.268 C 370.000 95.010,369.801 94.891,374.576 95.000 L 378.236 95.083 378.351 95.500 C 378.415 95.729,378.474 101.999,378.483 109.433 C 378.503 125.392,378.114 123.500,381.379 123.500 C 384.526 123.500,384.166 125.335,384.169 109.255 C 384.170 101.827,384.216 95.581,384.272 95.375 C 384.372 95.002,384.389 95.000,387.728 94.999 C 392.749 94.998,392.902 94.913,392.807 92.177 C 392.721 89.660,393.998 89.921,381.619 89.892 C 375.824 89.878,370.933 89.903,370.750 89.948 M327.181 90.319 C 326.882 90.618,325.667 93.001,325.667 93.288 C 325.667 93.401,324.840 95.065,323.946 96.750 C 323.556 97.484,323.209 98.263,322.646 99.666 C 322.370 100.353,322.044 101.028,321.923 101.166 C 321.688 101.432,320.333 104.237,320.333 104.456 C 320.333 104.568,319.503 106.238,318.612 107.917 C 318.223 108.650,317.868 109.447,317.385 110.667 C 317.149 111.263,316.864 111.862,316.751 112.000 C 316.470 112.342,315.001 115.321,314.996 115.559 C 314.994 115.664,314.740 116.237,314.431 116.833 C 310.961 123.533,310.958 123.500,314.960 123.500 C 317.917 123.500,317.828 123.553,318.753 121.247 C 319.635 119.050,320.161 117.964,320.548 117.542 L 320.891 117.167 327.790 117.167 C 332.046 117.167,334.807 117.230,334.998 117.332 C 335.282 117.484,336.167 119.154,336.167 119.537 C 336.167 119.626,336.288 119.973,336.437 120.308 C 337.961 123.744,337.618 123.500,340.920 123.500 C 345.034 123.500,345.013 124.100,341.177 116.250 C 340.460 114.783,339.818 113.396,339.750 113.167 C 339.682 112.938,339.567 112.675,339.494 112.583 C 339.313 112.353,337.167 108.053,337.167 107.919 C 337.167 107.859,336.558 106.559,335.814 105.030 C 330.372 93.840,329.167 91.329,329.167 91.177 C 329.167 90.353,327.757 89.743,327.181 90.319 M183.667 90.707 C 186.724 91.523,188.116 92.549,189.173 94.763 C 190.655 97.868,189.884 102.242,187.472 104.410 C 186.421 105.355,186.462 105.494,188.030 106.333 C 191.050 107.951,192.262 110.622,191.836 114.721 C 191.413 118.784,189.809 120.916,186.095 122.351 C 183.870 123.210,170.256 123.624,169.839 122.844 C 169.495 122.201,169.611 90.551,169.958 90.338 C 170.627 89.928,181.885 90.231,183.667 90.707 M239.760 90.403 C 240.074 90.633,240.086 91.022,240.167 104.395 C 240.220 113.232,240.310 118.209,240.417 118.315 C 240.515 118.412,242.318 118.501,244.805 118.532 C 249.859 118.594,249.500 118.411,249.500 120.923 C 249.500 123.391,250.216 123.179,242.073 123.127 L 235.260 123.083 235.047 122.667 C 234.641 121.871,234.828 90.705,235.240 90.403 C 235.698 90.068,239.302 90.068,239.760 90.403 M270.738 90.429 C 270.940 90.630,271.000 91.058,271.000 92.290 C 271.000 94.622,271.226 94.500,266.909 94.500 C 263.673 94.500,263.337 94.527,262.977 94.819 L 262.583 95.137 262.538 108.851 C 262.484 124.983,262.810 123.167,259.974 123.167 C 256.994 123.167,257.333 125.018,257.333 108.759 L 257.333 95.019 256.963 94.759 C 256.657 94.545,255.998 94.500,253.167 94.500 C 248.814 94.500,249.000 94.596,249.000 92.336 C 249.000 91.062,249.059 90.631,249.262 90.429 C 249.660 90.030,270.340 90.030,270.738 90.429 M358.833 90.571 C 364.502 91.927,366.938 94.599,367.124 99.667 C 367.286 104.070,365.891 106.842,362.375 109.100 C 361.337 109.767,361.311 109.948,362.079 111.167 C 362.396 111.671,362.928 112.601,363.260 113.235 C 363.592 113.868,364.220 114.955,364.655 115.651 C 365.090 116.347,365.791 117.563,366.213 118.352 C 366.635 119.141,367.202 120.116,367.473 120.519 C 368.300 121.744,368.595 122.478,368.392 122.801 C 368.139 123.204,363.824 123.308,363.240 122.926 C 362.825 122.653,361.261 120.099,360.614 118.636 C 360.393 118.136,359.804 117.020,359.306 116.155 C 358.807 115.291,358.091 113.945,357.714 113.165 C 356.600 110.857,356.563 110.833,354.187 110.833 C 351.417 110.833,351.667 110.232,351.667 116.891 C 351.667 123.720,351.883 123.167,349.212 123.167 C 347.645 123.167,347.218 123.114,346.971 122.891 C 346.507 122.471,346.495 90.621,346.958 90.339 C 347.483 90.019,357.330 90.212,358.833 90.571 M392.085 90.397 C 392.345 90.588,392.411 90.896,392.464 92.189 C 392.560 94.543,392.828 94.400,388.139 94.500 L 384.250 94.583 384.051 95.167 C 383.904 95.599,383.850 99.227,383.843 109.154 C 383.832 124.929,384.145 123.168,381.349 123.164 C 378.377 123.160,378.667 124.746,378.667 108.499 L 378.667 95.019 378.296 94.759 C 377.990 94.545,377.325 94.500,374.434 94.500 C 370.100 94.500,370.333 94.629,370.333 92.232 C 370.333 90.774,370.377 90.491,370.625 90.347 C 371.117 90.060,391.690 90.108,392.085 90.397 M328.374 90.625 C 328.516 90.785,328.853 91.404,329.122 92.000 C 329.391 92.596,330.121 94.133,330.743 95.417 C 331.366 96.700,332.436 98.912,333.122 100.333 C 333.808 101.754,334.845 103.892,335.426 105.083 C 336.467 107.220,337.218 108.784,340.746 116.167 C 341.731 118.229,342.799 120.463,343.119 121.130 C 343.522 121.970,343.669 122.470,343.597 122.755 L 343.494 123.167 341.069 123.167 C 337.872 123.167,338.001 123.262,336.716 119.934 C 335.942 117.929,335.566 117.214,335.177 117.006 C 334.970 116.895,332.327 116.833,327.768 116.833 L 320.680 116.833 320.257 117.290 C 320.024 117.541,319.833 117.796,319.833 117.857 C 319.833 117.918,319.544 118.593,319.189 119.359 C 318.835 120.124,318.376 121.184,318.168 121.714 C 317.619 123.114,317.496 123.167,314.791 123.167 C 311.583 123.167,311.597 123.249,313.986 118.417 C 314.711 116.950,315.590 115.112,315.940 114.333 C 316.290 113.554,316.812 112.504,317.101 112.000 C 317.389 111.496,317.679 110.896,317.745 110.667 C 317.811 110.438,318.487 108.975,319.247 107.417 C 320.007 105.858,321.233 103.346,321.970 101.833 C 322.707 100.321,323.471 98.671,323.667 98.167 C 323.863 97.662,324.289 96.772,324.615 96.188 C 324.940 95.603,325.648 94.141,326.187 92.938 C 327.346 90.352,327.751 89.923,328.374 90.625 M175.588 94.467 C 174.715 94.675,174.658 95.000,174.706 99.555 C 174.760 104.678,174.412 104.217,178.167 104.133 C 180.822 104.073,180.951 104.054,181.907 103.577 C 185.154 101.958,185.714 97.383,182.909 95.388 C 181.839 94.626,177.308 94.056,175.588 94.467 M209.461 94.745 C 203.970 96.700,201.262 101.530,201.843 108.333 C 202.574 116.900,210.928 121.414,218.736 117.462 C 225.293 114.143,225.870 101.145,219.667 96.485 C 216.844 94.364,212.576 93.636,209.461 94.745 M352.167 94.444 C 351.695 94.644,351.672 94.929,351.669 100.530 C 351.666 107.286,351.409 106.668,354.220 106.664 C 358.855 106.657,361.365 105.086,362.165 101.690 C 362.905 98.549,361.294 95.820,358.093 94.792 C 357.066 94.463,352.727 94.208,352.167 94.444 M215.261 94.838 C 218.132 95.335,221.056 97.551,222.293 100.167 C 225.418 106.776,223.091 115.531,217.667 117.568 C 216.979 117.826,216.119 118.160,215.755 118.310 C 214.611 118.783,211.217 118.685,209.750 118.138 C 203.882 115.949,201.423 111.278,202.319 104.023 C 203.104 97.661,208.687 93.699,215.261 94.838 M180.986 95.009 C 182.060 95.184,182.800 95.613,183.833 96.661 C 184.535 97.372,184.464 100.447,183.722 101.500 C 182.931 102.622,182.170 103.263,181.333 103.508 C 180.262 103.822,175.492 103.922,175.309 103.633 C 175.080 103.271,175.133 95.267,175.367 95.033 C 175.620 94.780,179.471 94.764,180.986 95.009 M357.533 95.021 C 363.806 96.352,363.392 104.939,357.000 106.096 C 354.993 106.459,352.388 106.413,352.173 106.011 C 351.913 105.527,351.939 95.294,352.200 95.033 C 352.461 94.773,356.321 94.764,357.533 95.021 M327.620 100.706 C 327.464 100.822,326.957 101.845,326.493 102.980 C 326.029 104.115,325.378 105.578,325.047 106.230 C 324.716 106.883,324.047 108.390,323.561 109.580 L 322.676 111.743 323.046 111.949 C 323.523 112.214,332.191 112.254,332.678 111.994 C 333.116 111.760,333.092 111.598,332.401 110.162 C 332.072 109.477,331.632 108.467,331.424 107.917 C 331.215 107.367,330.595 105.942,330.045 104.750 C 329.495 103.558,328.860 102.138,328.634 101.593 C 328.185 100.511,328.046 100.389,327.620 100.706 M328.167 101.246 C 328.167 101.551,329.019 103.474,330.495 106.500 C 330.652 106.821,330.834 107.300,330.899 107.565 C 330.965 107.830,331.341 108.730,331.736 109.565 C 332.131 110.400,332.506 111.252,332.571 111.458 L 332.689 111.833 327.957 111.833 L 323.224 111.833 323.300 111.292 C 323.341 110.994,323.432 110.675,323.502 110.583 C 323.572 110.492,323.864 109.825,324.152 109.102 C 324.440 108.378,325.044 107.028,325.494 106.102 C 325.944 105.175,326.513 103.892,326.759 103.250 C 327.394 101.587,328.167 100.487,328.167 101.246 M175.233 108.284 C 174.725 108.652,174.667 109.216,174.667 113.730 C 174.667 119.359,174.315 118.834,178.079 118.832 C 184.285 118.830,186.283 117.614,186.466 113.727 C 186.598 110.946,185.796 109.656,183.309 108.651 C 182.369 108.271,175.672 107.966,175.233 108.284 M182.384 108.768 C 185.095 109.374,186.231 110.696,186.240 113.250 C 186.254 117.194,184.302 118.497,178.375 118.499 L 175.167 118.500 175.169 113.792 C 175.172 109.083,175.199 108.799,175.667 108.621 C 176.259 108.396,181.202 108.504,182.384 108.768 " stroke="none" fill="#929292" fill-rule="evenodd"></path><path id="path3" d="M66.319 4.236 C 66.281 4.273,65.200 4.428,63.917 4.579 C 62.633 4.729,61.352 4.925,61.069 5.013 C 60.787 5.102,59.999 5.276,59.319 5.399 C 58.640 5.523,57.746 5.706,57.333 5.806 C 56.921 5.906,55.721 6.184,54.667 6.423 C 52.736 6.862,51.173 7.328,50.250 7.741 C 49.975 7.864,48.775 8.304,47.583 8.719 C 45.797 9.340,41.065 11.448,39.750 12.207 C 35.537 14.642,34.529 15.244,34.250 15.495 C 34.067 15.660,33.368 16.144,32.697 16.570 C 27.138 20.104,18.734 28.462,15.256 33.917 C 14.906 34.467,14.378 35.217,14.084 35.583 C 13.790 35.950,13.107 37.025,12.566 37.971 C 12.026 38.918,11.452 39.893,11.292 40.138 C 11.132 40.383,10.770 41.071,10.488 41.667 C 10.206 42.262,9.557 43.575,9.047 44.583 C 8.220 46.219,7.399 48.250,6.749 50.271 C 6.628 50.650,6.449 51.100,6.352 51.271 C 5.967 51.951,5.223 54.563,4.505 57.750 C 4.401 58.208,4.172 59.221,3.994 60.000 C 3.680 61.376,3.568 61.956,3.075 64.750 C 2.103 70.265,2.907 72.764,5.991 73.804 L 7.065 74.167 37.574 74.164 C 66.065 74.162,68.144 74.143,69.000 73.873 C 70.866 73.284,71.961 72.146,72.331 70.412 C 72.452 69.841,72.493 59.954,72.462 38.667 L 72.417 7.750 72.047 7.000 C 71.165 5.213,69.495 4.167,67.523 4.167 C 66.899 4.167,66.358 4.198,66.319 4.236 M69.108 4.732 C 70.147 5.009,70.983 5.730,71.665 6.939 L 72.167 7.828 72.167 39.170 L 72.167 70.511 71.755 71.324 C 71.192 72.435,70.071 73.321,68.872 73.603 C 67.626 73.897,8.251 73.945,6.581 73.654 C 3.507 73.119,2.414 70.552,3.249 65.833 C 3.387 65.054,3.500 64.108,3.500 63.730 C 3.500 63.352,3.650 62.574,3.833 62.000 C 4.017 61.426,4.167 60.701,4.167 60.390 C 4.167 60.078,4.280 59.552,4.418 59.221 C 4.556 58.890,4.736 58.236,4.817 57.768 C 5.202 55.542,6.334 51.788,7.190 49.898 C 7.360 49.522,7.500 49.148,7.500 49.068 C 7.500 48.656,9.140 44.859,9.833 43.667 C 9.913 43.529,10.340 42.667,10.781 41.751 C 11.222 40.835,11.643 40.010,11.716 39.918 C 12.072 39.467,13.346 37.378,13.437 37.096 C 13.494 36.919,13.927 36.244,14.399 35.596 C 14.871 34.947,15.480 34.079,15.753 33.667 C 19.227 28.420,26.400 21.314,32.500 17.074 C 33.371 16.469,34.383 15.754,34.750 15.485 C 35.117 15.215,35.666 14.885,35.971 14.751 C 36.276 14.616,36.861 14.280,37.271 14.003 C 37.681 13.726,38.078 13.500,38.153 13.500 C 38.227 13.500,38.467 13.363,38.686 13.195 C 39.374 12.666,44.274 10.275,45.917 9.666 C 46.467 9.462,47.163 9.191,47.464 9.064 C 47.765 8.937,48.094 8.833,48.196 8.833 C 48.297 8.833,48.688 8.693,49.065 8.521 C 50.642 7.800,52.815 7.133,55.667 6.493 C 56.538 6.298,57.792 5.995,58.455 5.819 C 59.117 5.644,59.874 5.500,60.137 5.500 C 60.399 5.500,60.982 5.389,61.432 5.252 C 61.882 5.116,63.262 4.920,64.500 4.818 C 65.737 4.715,66.781 4.601,66.819 4.565 C 66.973 4.421,68.301 4.518,69.108 4.732 M86.417 5.088 C 85.203 5.742,84.467 6.524,84.037 7.618 L 83.657 8.583 83.703 39.917 L 83.750 71.250 84.111 71.917 C 84.529 72.687,85.300 73.444,86.250 74.015 L 86.917 74.417 117.833 74.466 C 152.497 74.522,150.137 74.584,151.438 73.574 C 154.004 71.581,154.029 68.415,151.561 58.083 C 150.970 55.608,150.309 53.096,150.092 52.500 C 148.793 48.919,147.855 46.640,146.814 44.526 C 146.167 43.211,145.522 41.861,145.382 41.526 C 145.243 41.191,144.863 40.504,144.539 40.000 C 144.215 39.496,143.781 38.821,143.576 38.500 C 143.371 38.179,143.001 37.542,142.753 37.083 C 142.506 36.625,141.987 35.837,141.600 35.333 C 141.213 34.829,140.730 34.143,140.528 33.808 C 138.431 30.340,131.671 23.246,127.020 19.634 C 126.230 19.020,125.208 18.221,124.750 17.859 C 124.292 17.497,123.617 17.028,123.250 16.817 C 122.883 16.605,122.208 16.152,121.750 15.811 C 121.028 15.273,117.758 13.333,117.573 13.333 C 117.536 13.333,117.111 13.081,116.628 12.773 C 116.145 12.465,115.188 11.967,114.500 11.668 C 113.813 11.368,112.482 10.758,111.543 10.312 C 110.604 9.866,108.691 9.113,107.293 8.639 C 105.894 8.165,104.225 7.595,103.583 7.372 C 101.885 6.783,98.607 6.068,94.917 5.482 C 94.367 5.394,93.330 5.208,92.613 5.067 C 90.027 4.561,87.380 4.570,86.417 5.088 M91.625 5.256 C 92.244 5.387,93.087 5.497,93.500 5.501 C 93.912 5.505,94.807 5.656,95.489 5.837 C 96.170 6.018,96.915 6.167,97.144 6.167 C 97.374 6.167,97.979 6.276,98.489 6.409 C 98.999 6.543,99.979 6.767,100.667 6.906 C 102.185 7.215,103.633 7.605,104.083 7.827 C 104.493 8.029,105.665 8.453,106.667 8.763 C 108.463 9.318,109.950 9.869,110.978 10.359 C 111.586 10.649,112.721 11.184,113.500 11.549 C 116.571 12.985,120.393 15.144,121.720 16.193 C 122.165 16.545,122.601 16.833,122.688 16.833 C 122.826 16.833,123.761 17.428,124.000 17.667 C 124.340 18.006,125.514 18.833,125.657 18.833 C 125.754 18.833,125.833 18.894,125.833 18.967 C 125.833 19.041,126.377 19.509,127.042 20.007 C 127.706 20.504,128.625 21.264,129.083 21.694 C 129.542 22.124,130.179 22.692,130.500 22.954 C 131.912 24.110,135.995 28.371,137.172 29.917 C 137.591 30.467,138.177 31.179,138.474 31.500 C 138.771 31.821,139.503 32.796,140.101 33.667 C 140.698 34.537,141.482 35.662,141.843 36.167 C 142.204 36.671,142.500 37.154,142.500 37.241 C 142.500 37.328,142.678 37.665,142.895 37.991 C 144.255 40.029,144.806 40.986,145.588 42.667 C 145.823 43.171,146.260 44.033,146.560 44.583 C 146.859 45.133,147.265 45.996,147.462 46.500 C 147.659 47.004,148.158 48.286,148.572 49.348 C 148.986 50.410,149.439 51.497,149.578 51.764 C 149.717 52.031,149.832 52.385,149.832 52.550 C 149.833 52.715,149.937 53.052,150.064 53.300 C 150.190 53.547,150.345 54.087,150.408 54.500 C 150.470 54.913,150.656 55.737,150.821 56.333 C 151.567 59.025,152.104 61.275,152.354 62.750 C 152.446 63.300,152.633 64.387,152.768 65.167 C 153.553 69.688,153.128 71.971,151.241 73.379 L 150.182 74.169 118.466 74.126 L 86.750 74.083 86.000 73.557 C 85.124 72.942,84.688 72.392,84.193 71.270 L 83.833 70.458 83.840 39.604 L 83.847 8.750 84.241 7.833 C 84.840 6.441,85.770 5.604,87.417 4.974 C 87.865 4.803,90.235 4.961,91.625 5.256 M145.333 83.828 C 142.529 84.171,140.254 84.518,139.378 84.736 C 138.849 84.867,137.667 85.135,136.750 85.332 C 132.528 86.241,131.195 86.617,128.500 87.664 C 127.996 87.859,126.871 88.269,126.000 88.574 C 125.129 88.878,124.192 89.248,123.917 89.396 C 123.642 89.544,123.368 89.665,123.308 89.666 C 123.248 89.666,122.760 89.912,122.224 90.213 C 121.688 90.513,120.942 90.878,120.566 91.023 C 119.949 91.262,119.177 91.688,115.330 93.917 C 108.184 98.056,99.854 105.854,94.677 113.250 C 92.898 115.791,90.133 120.346,89.668 121.500 C 89.539 121.821,89.229 122.433,88.979 122.861 C 88.461 123.749,87.437 126.019,87.000 127.250 C 86.837 127.708,86.546 128.477,86.352 128.958 C 86.158 129.440,85.842 130.227,85.649 130.708 C 85.338 131.482,84.193 135.619,83.583 138.167 C 83.462 138.671,83.288 139.383,83.196 139.750 C 82.552 142.308,81.895 147.901,82.054 149.466 C 82.256 151.444,83.623 152.925,85.702 153.415 C 87.299 153.791,146.783 153.792,148.229 153.415 C 149.379 153.116,150.510 152.378,150.970 151.627 C 151.884 150.138,151.841 151.881,151.793 118.326 L 151.750 87.417 151.367 86.583 C 150.328 84.323,148.415 83.450,145.333 83.828 M148.737 84.350 C 149.525 84.569,150.837 85.881,151.179 86.793 C 151.491 87.625,151.633 148.126,151.327 149.750 C 150.957 151.711,149.724 152.896,147.755 153.181 C 146.441 153.371,87.391 153.371,86.076 153.181 C 84.895 153.010,83.802 152.346,82.968 151.293 L 82.417 150.596 82.432 148.246 C 82.448 145.733,82.945 141.832,83.515 139.750 C 83.691 139.108,83.834 138.454,83.834 138.295 C 83.834 138.137,83.977 137.537,84.152 136.962 C 84.327 136.387,84.597 135.429,84.752 134.833 C 85.310 132.682,85.861 130.903,86.178 130.232 C 86.355 129.855,86.500 129.477,86.500 129.392 C 86.500 129.307,86.650 128.943,86.833 128.583 C 87.017 128.224,87.167 127.800,87.167 127.641 C 87.167 127.483,87.233 127.312,87.315 127.261 C 87.396 127.211,87.514 126.965,87.577 126.716 C 87.710 126.186,88.183 125.095,88.791 123.917 C 89.028 123.458,89.674 122.183,90.227 121.083 C 90.781 119.983,91.467 118.746,91.753 118.333 C 92.039 117.921,92.599 117.021,92.997 116.333 C 93.396 115.646,93.866 114.896,94.042 114.667 C 94.218 114.438,94.840 113.575,95.424 112.750 C 96.007 111.925,96.587 111.138,96.712 111.000 C 96.838 110.862,97.543 110.000,98.281 109.083 C 101.551 105.019,108.075 99.060,112.333 96.248 C 113.021 95.794,113.621 95.383,113.667 95.335 C 113.844 95.148,115.166 94.333,115.292 94.333 C 115.365 94.333,115.798 94.088,116.254 93.788 C 117.231 93.145,119.778 91.667,119.908 91.667 C 119.957 91.667,121.142 91.112,122.541 90.433 C 123.939 89.755,125.271 89.149,125.500 89.087 C 125.729 89.024,126.592 88.713,127.417 88.394 C 130.831 87.074,131.658 86.814,134.500 86.160 C 135.371 85.960,136.533 85.682,137.083 85.544 C 137.633 85.405,138.458 85.235,138.917 85.165 C 139.375 85.095,140.086 84.947,140.497 84.835 C 142.442 84.308,147.512 84.010,148.737 84.350 M6.167 85.155 C 2.942 86.146,2.076 88.736,3.076 94.395 C 3.208 95.140,3.388 96.162,3.476 96.667 C 3.565 97.171,3.720 97.921,3.822 98.333 C 3.924 98.746,4.165 99.796,4.359 100.667 C 5.251 104.668,5.789 106.602,6.333 107.750 C 6.507 108.117,6.895 109.173,7.282 110.333 C 7.914 112.228,10.409 117.486,11.552 119.333 C 11.921 119.929,12.481 120.902,12.797 121.495 C 13.113 122.088,13.611 122.876,13.903 123.245 C 14.196 123.614,14.804 124.479,15.253 125.167 C 17.566 128.700,23.968 135.757,27.083 138.206 C 27.542 138.567,28.554 139.379,29.333 140.012 C 30.975 141.344,33.723 143.296,34.892 143.958 C 35.337 144.210,36.200 144.745,36.809 145.146 C 37.789 145.792,39.434 146.660,43.412 148.632 C 44.051 148.949,45.251 149.457,46.079 149.761 C 46.906 150.065,47.996 150.476,48.500 150.673 C 50.897 151.609,51.632 151.841,54.262 152.489 C 55.814 152.871,57.646 153.326,58.333 153.498 C 61.833 154.378,67.202 154.957,68.971 154.646 C 70.206 154.428,71.068 153.750,71.866 152.370 L 72.417 151.417 72.417 119.917 L 72.417 88.417 72.024 87.667 C 71.493 86.654,70.736 85.887,69.833 85.448 L 69.083 85.083 37.833 85.055 C 20.646 85.040,6.396 85.085,6.167 85.155 M68.967 85.526 C 70.394 85.949,71.096 86.524,71.730 87.786 L 72.167 88.656 72.167 120.006 L 72.167 151.357 71.757 152.054 C 71.205 152.990,70.503 153.734,69.817 154.108 C 69.099 154.499,64.830 154.486,63.138 154.087 C 62.558 153.950,61.818 153.837,61.493 153.836 C 61.169 153.834,60.456 153.712,59.910 153.565 C 59.364 153.417,58.467 153.199,57.917 153.080 C 54.368 152.311,49.965 151.089,49.421 150.722 C 49.240 150.600,48.978 150.500,48.838 150.499 C 48.698 150.498,48.358 150.378,48.083 150.232 C 47.808 150.085,46.908 149.718,46.083 149.417 C 44.417 148.807,43.128 148.232,42.000 147.595 C 41.587 147.362,40.537 146.826,39.667 146.405 C 38.796 145.983,37.730 145.384,37.298 145.074 C 36.867 144.764,36.117 144.305,35.632 144.054 C 35.147 143.802,34.225 143.217,33.583 142.752 C 32.942 142.287,31.892 141.554,31.250 141.124 C 30.608 140.693,29.858 140.128,29.583 139.868 C 29.308 139.607,28.708 139.113,28.250 138.768 C 25.404 136.630,18.799 129.783,16.838 126.939 C 16.704 126.743,16.198 126.040,15.713 125.377 C 15.229 124.713,14.833 124.108,14.833 124.033 C 14.833 123.958,14.702 123.751,14.542 123.573 C 14.162 123.153,13.475 122.109,12.958 121.167 C 12.172 119.736,11.800 119.167,11.650 119.167 C 11.568 119.167,11.500 119.027,11.500 118.856 C 11.500 118.685,11.369 118.366,11.208 118.147 C 11.048 117.929,10.760 117.412,10.568 117.000 C 10.091 115.975,9.190 114.138,9.015 113.833 C 8.688 113.265,8.058 111.655,6.895 108.417 C 6.763 108.050,6.554 107.525,6.431 107.250 C 6.156 106.640,5.634 104.874,5.199 103.083 C 5.020 102.350,4.743 101.225,4.583 100.583 C 4.422 99.942,4.239 99.079,4.175 98.667 C 4.112 98.254,3.937 97.392,3.788 96.750 C 2.382 90.729,2.851 87.114,5.195 85.902 C 6.610 85.170,5.761 85.189,37.583 85.177 L 67.750 85.166 68.967 85.526 M209.131 90.074 C 205.892 90.937,204.024 91.872,201.833 93.727 C 195.127 99.406,194.473 111.309,200.494 118.118 C 206.805 125.255,219.070 125.318,225.240 118.243 C 226.955 116.277,227.470 115.360,228.563 112.333 C 230.788 106.170,228.574 97.066,224.036 93.718 C 223.695 93.467,223.061 92.971,222.626 92.616 C 219.639 90.178,213.254 88.975,209.131 90.074 M298.167 90.086 C 289.859 92.334,285.444 98.029,285.445 106.500 C 285.445 118.010,294.428 125.313,305.718 122.983 C 310.031 122.093,310.831 121.352,310.093 118.931 C 309.505 117.006,309.265 116.846,307.914 117.483 C 297.070 122.596,287.614 113.126,291.707 101.252 C 292.198 99.827,293.865 97.437,294.906 96.667 C 298.823 93.766,303.403 93.327,307.167 95.491 C 309.066 96.583,309.110 96.563,310.172 94.069 C 311.074 91.954,310.914 91.646,308.500 90.828 C 304.627 89.517,301.183 89.270,298.167 90.086 M216.083 90.246 C 218.358 90.776,222.030 92.215,222.193 92.639 C 222.224 92.722,222.764 93.172,223.393 93.640 C 224.021 94.108,224.809 94.848,225.143 95.285 C 225.477 95.722,225.889 96.230,226.060 96.415 C 228.311 98.853,229.660 105.077,228.906 109.542 C 228.265 113.336,226.859 116.176,224.253 118.940 C 221.127 122.256,214.832 123.882,209.260 122.813 C 199.074 120.859,193.607 108.940,198.346 99.019 C 200.842 93.793,204.498 91.236,211.333 89.936 C 212.105 89.789,214.907 89.972,216.083 90.246 M305.250 90.238 C 310.341 91.352,310.855 91.832,309.684 94.380 C 308.881 96.126,308.853 96.143,307.809 95.501 C 305.560 94.117,303.150 93.627,300.309 93.974 C 298.562 94.188,297.740 94.503,295.750 95.725 C 291.930 98.069,289.615 104.199,290.674 109.167 C 290.762 109.579,290.918 110.367,291.020 110.917 C 291.661 114.372,294.896 117.838,298.335 118.752 C 301.167 119.505,305.701 119.049,308.083 117.770 C 309.190 117.176,309.606 117.705,310.114 120.349 C 310.459 122.149,303.625 123.562,298.417 122.768 C 295.851 122.377,294.916 121.983,291.997 120.058 C 284.045 114.817,283.645 100.003,291.288 93.811 C 292.001 93.234,292.621 92.716,292.667 92.660 C 292.775 92.526,294.253 91.759,295.000 91.449 C 296.625 90.774,298.273 90.324,300.500 89.949 C 301.672 89.751,303.550 89.866,305.250 90.238 M170.533 90.275 C 169.650 90.405,169.667 90.089,169.667 106.818 L 169.667 122.448 170.018 122.766 C 170.830 123.499,183.591 123.123,185.917 122.297 C 189.762 120.931,191.529 118.456,191.782 114.083 C 191.998 110.351,190.839 108.032,187.957 106.430 C 186.460 105.597,186.180 105.209,186.797 104.824 C 191.355 101.978,190.588 93.521,185.583 91.444 C 183.227 90.466,174.073 89.755,170.533 90.275 M235.667 90.275 C 234.989 90.537,235.000 90.269,235.000 106.692 L 235.000 122.487 235.365 122.827 C 235.719 123.157,235.918 123.167,242.073 123.164 C 249.885 123.161,249.234 123.368,249.297 120.868 L 249.344 118.996 248.911 118.831 C 248.671 118.740,246.741 118.667,244.572 118.667 C 240.889 118.667,240.648 118.648,240.333 118.333 C 240.005 118.005,240.000 117.778,240.000 104.449 C 240.000 93.016,239.963 90.846,239.764 90.574 C 239.525 90.247,236.341 90.015,235.667 90.275 M249.921 90.312 C 249.238 90.459,249.005 91.017,249.002 92.516 C 248.999 94.371,248.844 94.304,253.226 94.365 C 256.819 94.416,256.867 94.421,257.182 94.810 C 257.489 95.190,257.500 95.668,257.503 108.810 C 257.504 116.294,257.560 122.499,257.628 122.600 C 258.112 123.325,261.407 123.442,262.091 122.758 L 262.500 122.348 262.500 108.706 C 262.500 97.194,262.537 95.013,262.736 94.740 C 262.956 94.439,263.237 94.413,266.725 94.364 C 271.162 94.301,270.863 94.458,270.798 92.230 C 270.752 90.672,270.730 90.582,270.333 90.382 C 269.889 90.158,250.945 90.093,249.921 90.312 M347.424 90.299 C 346.684 90.477,346.701 90.089,346.683 106.773 C 346.664 124.984,346.410 123.049,348.827 123.142 C 350.108 123.191,350.876 123.079,351.368 122.771 C 351.386 122.760,351.443 120.147,351.493 116.966 C 351.600 110.124,351.337 110.768,354.057 110.695 C 356.601 110.628,356.456 110.521,358.108 113.667 C 363.580 124.082,362.768 123.064,365.659 123.138 C 368.752 123.217,368.911 122.976,367.375 120.538 C 366.848 119.701,366.083 118.405,365.674 117.658 C 365.266 116.910,364.679 115.913,364.371 115.441 C 364.062 114.969,363.546 114.066,363.224 113.435 C 362.902 112.803,362.379 111.895,362.062 111.418 C 361.204 110.125,361.234 109.720,362.241 109.054 C 369.067 104.540,368.693 94.146,361.608 91.495 C 358.871 90.471,349.868 89.712,347.424 90.299 M370.892 90.359 C 370.470 90.567,370.333 91.132,370.333 92.662 C 370.333 94.347,370.211 94.299,374.639 94.363 C 378.097 94.413,378.377 94.440,378.597 94.740 C 378.796 95.013,378.833 97.203,378.833 108.770 L 378.833 122.476 379.272 122.821 C 379.652 123.120,379.944 123.167,381.427 123.167 C 384.114 123.167,383.833 124.858,383.833 108.676 C 383.833 97.192,383.870 95.013,384.070 94.740 C 384.288 94.441,384.590 94.411,388.159 94.333 C 391.334 94.265,392.042 94.206,392.179 94.000 C 392.420 93.637,392.301 90.733,392.033 90.466 C 391.750 90.183,371.459 90.080,370.892 90.359 M182.185 90.841 C 184.904 91.377,186.595 92.076,187.504 93.037 C 188.043 93.608,189.000 95.086,189.001 95.351 C 189.002 95.479,189.126 95.808,189.278 96.083 C 190.422 98.160,188.887 103.047,186.608 104.582 C 185.719 105.181,185.837 105.748,186.952 106.234 C 190.090 107.600,191.580 109.933,191.539 113.417 C 191.484 118.065,189.698 120.624,185.417 122.188 C 184.410 122.556,171.631 122.903,170.407 122.596 L 170.000 122.494 170.000 106.802 C 170.000 92.434,170.023 91.084,170.276 90.805 C 170.713 90.322,179.691 90.350,182.185 90.841 M239.473 90.875 C 239.617 91.151,239.679 94.820,239.709 104.806 L 239.750 118.363 240.143 118.681 C 240.507 118.976,240.848 119.000,244.583 119.000 L 248.628 119.000 248.897 119.411 C 249.225 119.911,249.276 122.157,248.967 122.467 C 248.755 122.678,236.134 122.772,235.597 122.566 C 235.275 122.442,235.185 91.421,235.506 90.822 C 235.789 90.293,239.192 90.338,239.473 90.875 M270.417 92.333 L 270.417 94.083 266.547 94.167 C 263.123 94.240,262.644 94.284,262.381 94.548 C 262.102 94.827,262.078 95.693,262.000 108.714 L 261.917 122.583 260.107 122.631 C 258.916 122.662,258.219 122.612,258.066 122.485 C 257.870 122.323,257.833 120.125,257.833 108.719 C 257.833 95.086,257.817 94.661,257.267 94.294 C 257.166 94.227,255.546 94.170,253.667 94.167 C 249.177 94.161,249.500 94.286,249.500 92.553 C 249.500 90.250,248.230 90.491,260.132 90.540 L 270.417 90.583 270.417 92.333 M327.436 90.755 C 327.189 91.001,326.333 92.702,326.333 92.945 C 326.333 93.001,325.687 94.368,324.897 95.982 C 324.107 97.596,322.907 100.049,322.230 101.432 C 321.554 102.816,321.000 104.001,321.000 104.066 C 321.000 104.178,319.520 107.250,316.649 113.097 C 315.926 114.571,315.333 115.835,315.333 115.906 C 315.333 115.978,314.821 117.059,314.194 118.310 C 313.567 119.560,312.879 121.026,312.665 121.566 L 312.275 122.549 312.672 122.871 C 313.025 123.157,313.293 123.186,315.101 123.138 C 317.453 123.075,317.590 123.005,318.072 121.631 C 318.809 119.534,320.129 117.056,320.619 116.853 C 320.966 116.709,323.009 116.669,328.155 116.703 L 335.214 116.750 335.565 117.210 C 335.759 117.463,336.368 118.776,336.919 120.127 C 338.163 123.177,338.148 123.166,341.042 123.166 C 344.349 123.167,344.621 124.292,338.082 110.917 C 337.499 109.725,336.468 107.587,335.789 106.167 C 335.111 104.746,333.751 101.896,332.767 99.833 C 328.372 90.622,328.074 90.116,327.436 90.755 M357.833 90.841 C 362.084 91.671,364.243 92.898,365.543 95.225 C 368.219 100.011,366.544 106.266,361.880 108.911 C 360.773 109.539,360.752 109.966,361.753 111.500 C 362.083 112.004,362.614 112.935,362.935 113.568 C 363.255 114.202,363.767 115.102,364.073 115.568 C 364.727 116.568,366.000 118.815,366.001 118.973 C 366.001 119.034,366.454 119.757,367.006 120.580 C 368.364 122.606,368.384 122.573,365.744 122.630 C 362.988 122.688,363.369 123.019,361.083 118.583 C 360.610 117.667,359.798 116.145,359.278 115.202 C 358.759 114.260,358.333 113.433,358.333 113.366 C 358.333 112.905,356.793 110.690,356.343 110.504 C 355.551 110.176,351.920 110.342,351.538 110.723 C 351.278 110.983,351.245 111.569,351.202 116.708 C 351.166 120.943,351.102 122.438,350.952 122.533 C 350.403 122.882,347.176 122.681,347.082 122.292 C 346.839 121.297,347.081 90.822,347.333 90.663 C 347.859 90.331,355.920 90.468,357.833 90.841 M391.837 90.928 C 392.149 91.748,392.043 93.799,391.678 93.994 C 391.483 94.098,389.897 94.167,387.687 94.167 C 384.085 94.167,384.014 94.173,383.759 94.537 C 383.530 94.865,383.500 96.470,383.500 108.523 C 383.500 116.012,383.454 122.258,383.399 122.403 C 383.270 122.740,379.696 122.796,379.367 122.467 C 379.214 122.314,379.167 119.003,379.167 108.582 C 379.167 97.034,379.130 94.847,378.930 94.574 C 378.711 94.274,378.409 94.244,374.805 94.167 L 370.917 94.083 370.867 92.667 C 370.840 91.888,370.861 91.081,370.912 90.875 L 371.006 90.500 381.341 90.500 L 391.675 90.500 391.837 90.928 M328.658 92.167 C 328.913 92.763,329.355 93.644,329.641 94.126 C 329.926 94.609,330.527 95.846,330.976 96.876 C 331.424 97.907,331.964 99.050,332.174 99.417 C 332.687 100.314,333.500 101.976,333.499 102.128 C 333.499 102.195,334.107 103.487,334.850 105.000 C 338.371 112.160,338.850 113.155,339.261 114.167 C 339.503 114.763,339.758 115.325,339.827 115.417 C 340.069 115.738,341.500 118.522,341.500 118.671 C 341.500 118.754,341.878 119.614,342.340 120.582 C 343.380 122.758,343.449 122.667,340.752 122.667 L 338.523 122.667 338.178 122.183 C 337.988 121.916,337.833 121.644,337.833 121.578 C 337.833 121.397,336.669 118.506,336.305 117.785 C 335.607 116.401,336.251 116.500,327.939 116.500 C 319.499 116.500,320.099 116.394,319.302 118.026 C 318.512 119.643,317.883 121.074,317.666 121.750 C 317.548 122.117,317.369 122.472,317.268 122.539 C 317.003 122.715,312.871 122.696,312.761 122.518 C 312.643 122.327,313.061 121.347,314.581 118.250 C 315.753 115.860,316.667 113.894,316.667 113.761 C 316.667 113.727,316.912 113.260,317.213 112.724 C 317.513 112.188,317.971 111.263,318.230 110.667 C 318.489 110.071,319.284 108.383,319.998 106.917 C 321.327 104.183,322.000 102.730,322.000 102.592 C 322.000 102.550,322.220 102.141,322.489 101.685 C 322.758 101.229,323.217 100.307,323.509 99.636 C 323.801 98.965,324.622 97.217,325.334 95.750 C 326.046 94.283,326.795 92.708,326.998 92.250 C 327.714 90.641,327.999 90.626,328.658 92.167 M210.716 94.002 C 209.796 94.136,208.093 94.756,207.654 95.117 C 207.509 95.236,207.321 95.335,207.237 95.336 C 207.076 95.340,206.049 96.008,205.304 96.594 C 203.743 97.823,201.833 101.431,201.509 103.764 C 200.359 112.028,204.177 118.039,211.333 119.230 C 213.902 119.658,217.109 118.999,219.312 117.593 C 225.363 113.727,226.351 102.627,221.117 97.291 C 218.325 94.444,214.964 93.381,210.716 94.002 M175.033 94.107 C 174.406 94.246,174.333 94.806,174.333 99.490 C 174.333 104.980,173.907 104.417,178.068 104.417 C 181.788 104.416,182.250 104.280,183.602 102.779 C 186.243 99.848,185.544 96.045,182.083 94.505 C 181.257 94.137,176.191 93.851,175.033 94.107 M351.583 94.223 C 351.261 94.465,351.250 94.668,351.250 100.500 C 351.250 107.822,350.830 107.047,354.750 106.955 C 357.619 106.888,358.981 106.586,359.713 105.853 C 359.816 105.751,359.982 105.667,360.082 105.667 C 360.375 105.667,361.603 104.308,361.964 103.583 C 363.899 99.703,362.549 96.081,358.583 94.511 C 357.286 93.997,352.165 93.786,351.583 94.223 M216.669 94.692 C 221.677 96.825,224.167 100.782,224.167 106.613 C 224.167 114.133,219.842 118.892,213.000 118.901 C 207.624 118.908,203.843 116.111,202.111 110.848 C 201.604 109.307,201.573 103.934,202.063 102.500 C 203.457 98.419,205.706 95.979,209.250 94.706 C 211.170 94.016,215.065 94.009,216.669 94.692 M358.125 94.692 C 364.227 96.576,363.924 104.339,357.667 106.426 C 356.275 106.891,352.078 106.891,351.737 106.426 C 351.456 106.043,351.383 95.495,351.658 94.774 C 351.928 94.064,355.928 94.013,358.125 94.692 M182.190 94.883 C 185.739 96.610,185.703 101.740,182.129 103.619 C 181.140 104.139,175.804 104.430,175.014 104.007 C 174.520 103.743,174.467 95.164,174.956 94.623 C 175.464 94.062,180.905 94.258,182.190 94.883 M327.534 99.946 C 327.267 100.053,326.656 101.279,325.886 103.250 C 325.564 104.075,324.829 105.725,324.253 106.917 C 323.677 108.108,323.114 109.372,323.001 109.724 C 322.889 110.077,322.693 110.565,322.566 110.808 C 321.741 112.389,322.102 112.500,328.068 112.500 C 334.299 112.500,334.028 112.668,332.667 109.650 C 332.208 108.635,331.833 107.736,331.833 107.653 C 331.833 107.570,331.351 106.496,330.761 105.267 C 330.171 104.037,329.489 102.468,329.244 101.779 C 328.655 100.120,328.232 99.666,327.534 99.946 M328.288 100.542 C 328.377 100.656,328.737 101.462,329.088 102.333 C 329.439 103.204,330.020 104.509,330.380 105.234 C 330.740 105.958,331.215 107.031,331.435 107.617 C 331.656 108.204,332.088 109.223,332.395 109.883 C 333.540 112.344,333.883 112.167,327.993 112.167 C 323.067 112.167,322.667 112.134,322.667 111.729 C 322.667 111.348,323.779 108.610,324.780 106.529 C 325.289 105.469,325.878 104.148,326.088 103.593 C 327.166 100.751,327.784 99.893,328.288 100.542 M174.686 108.148 C 174.198 108.635,174.127 118.455,174.608 118.855 C 175.410 119.521,182.416 119.189,184.171 118.401 C 188.097 116.640,188.016 110.515,184.042 108.565 L 182.750 107.930 178.894 107.863 C 175.145 107.797,175.028 107.805,174.686 108.148 M183.208 108.524 C 185.713 109.383,186.586 110.627,186.579 113.333 C 186.572 116.103,185.821 117.376,183.660 118.282 C 182.446 118.790,175.792 119.091,175.011 118.672 C 174.516 118.408,174.466 108.633,174.958 108.347 C 175.577 107.986,182.045 108.125,183.208 108.524 " stroke="none" fill="#6c6c6c" fill-rule="evenodd"></path><path id="path4" d="M23.324 24.292 L 22.750 24.917 23.375 24.342 C 23.957 23.808,24.077 23.667,23.949 23.667 C 23.922 23.667,23.640 23.948,23.324 24.292 M19.906 27.875 L 19.417 28.417 19.958 27.927 C 20.463 27.471,20.577 27.333,20.448 27.333 C 20.419 27.333,20.175 27.577,19.906 27.875 M153.383 69.667 C 153.383 70.171,153.415 70.377,153.453 70.125 C 153.491 69.873,153.491 69.460,153.453 69.208 C 153.415 68.956,153.383 69.162,153.383 69.667 M178.711 90.286 C 178.964 90.325,179.339 90.324,179.544 90.284 C 179.749 90.244,179.542 90.213,179.083 90.214 C 178.625 90.216,178.457 90.248,178.711 90.286 M270.892 92.500 C 270.892 93.279,270.920 93.598,270.955 93.208 C 270.990 92.819,270.990 92.181,270.955 91.792 C 270.920 91.402,270.892 91.721,270.892 92.500 M353.125 94.289 C 353.515 94.324,354.152 94.324,354.542 94.289 C 354.931 94.254,354.613 94.225,353.833 94.225 C 353.054 94.225,352.735 94.254,353.125 94.289 M251.708 94.458 C 252.602 94.488,254.065 94.488,254.958 94.458 C 255.852 94.428,255.121 94.403,253.333 94.403 C 251.546 94.403,250.815 94.428,251.708 94.458 M265.125 94.458 C 266.065 94.487,267.602 94.487,268.542 94.458 C 269.481 94.428,268.712 94.404,266.833 94.404 C 264.954 94.404,264.185 94.428,265.125 94.458 M372.717 94.458 C 373.708 94.487,375.283 94.487,376.217 94.458 C 377.152 94.428,376.342 94.404,374.417 94.404 C 372.492 94.404,371.727 94.428,372.717 94.458 M386.292 94.458 C 387.231 94.487,388.769 94.487,389.708 94.458 C 390.648 94.428,389.879 94.404,388.000 94.404 C 386.121 94.404,385.352 94.428,386.292 94.458 M204.906 97.375 L 204.417 97.917 204.958 97.427 C 205.463 96.971,205.577 96.833,205.448 96.833 C 205.419 96.833,205.175 97.077,204.906 97.375 M187.573 104.208 L 187.083 104.750 187.625 104.260 C 188.130 103.804,188.243 103.667,188.115 103.667 C 188.086 103.667,187.842 103.910,187.573 104.208 M99.409 107.208 L 98.750 107.917 99.458 107.258 C 100.117 106.645,100.243 106.500,100.117 106.500 C 100.090 106.500,99.771 106.819,99.409 107.208 M355.042 106.782 C 355.202 106.823,355.465 106.823,355.625 106.782 C 355.785 106.740,355.654 106.705,355.333 106.705 C 355.012 106.705,354.881 106.740,355.042 106.782 M220.661 115.958 L 219.750 116.917 220.708 116.006 C 221.599 115.159,221.743 115.000,221.619 115.000 C 221.593 115.000,221.162 115.431,220.661 115.958 M249.393 121.000 C 249.393 121.871,249.422 122.227,249.456 121.792 C 249.490 121.356,249.490 120.644,249.456 120.208 C 249.422 119.773,249.393 120.129,249.393 121.000 M180.460 123.118 C 180.668 123.158,180.968 123.156,181.127 123.115 C 181.286 123.073,181.117 123.040,180.750 123.042 C 180.383 123.044,180.253 123.078,180.460 123.118 M301.458 123.451 C 301.665 123.491,302.002 123.491,302.208 123.451 C 302.415 123.411,302.246 123.379,301.833 123.379 C 301.421 123.379,301.252 123.411,301.458 123.451 " stroke="none" fill="#747474" fill-rule="evenodd"></path><path id="path5" d="M67.460 4.118 C 67.668 4.158,67.968 4.156,68.127 4.115 C 68.286 4.073,68.117 4.040,67.750 4.042 C 67.383 4.044,67.253 4.078,67.460 4.118 M88.127 4.618 C 88.334 4.658,88.634 4.656,88.794 4.615 C 88.953 4.573,88.783 4.540,88.417 4.542 C 88.050 4.544,87.920 4.578,88.127 4.618 M83.582 39.583 C 83.582 56.358,83.601 63.196,83.625 54.778 C 83.649 46.361,83.649 32.636,83.625 24.278 C 83.601 15.921,83.582 22.808,83.582 39.583 M26.740 21.042 L 26.250 21.583 26.792 21.094 C 27.090 20.825,27.333 20.581,27.333 20.552 C 27.333 20.423,27.196 20.537,26.740 21.042 M131.917 23.833 C 132.646 24.567,133.280 25.167,133.326 25.167 C 133.371 25.167,132.812 24.567,132.083 23.833 C 131.354 23.100,130.720 22.500,130.674 22.500 C 130.629 22.500,131.188 23.100,131.917 23.833 M135.917 28.000 C 136.275 28.367,136.605 28.667,136.651 28.667 C 136.697 28.667,136.441 28.367,136.083 28.000 C 135.725 27.633,135.395 27.333,135.349 27.333 C 135.303 27.333,135.559 27.633,135.917 28.000 M153.372 68.333 C 153.372 68.654,153.406 68.785,153.448 68.625 C 153.490 68.465,153.490 68.202,153.448 68.042 C 153.406 67.881,153.372 68.012,153.372 68.333 M2.545 69.333 C 2.545 69.746,2.578 69.915,2.618 69.708 C 2.657 69.502,2.657 69.165,2.618 68.958 C 2.578 68.752,2.545 68.921,2.545 69.333 M22.445 74.292 C 30.711 74.316,44.286 74.316,52.612 74.292 C 60.938 74.268,54.175 74.248,37.583 74.248 C 20.992 74.248,14.179 74.268,22.445 74.292 M103.125 74.625 C 111.581 74.649,125.419 74.649,133.875 74.625 C 142.331 74.601,135.412 74.582,118.500 74.582 C 101.587 74.582,94.669 74.601,103.125 74.625 M3.824 86.458 L 3.250 87.083 3.875 86.509 C 4.457 85.974,4.577 85.833,4.449 85.833 C 4.422 85.833,4.140 86.115,3.824 86.458 M151.915 118.667 C 151.915 135.396,151.934 142.240,151.958 133.875 C 151.982 125.510,151.982 111.823,151.958 103.458 C 151.934 95.094,151.915 101.938,151.915 118.667 M2.545 89.833 C 2.545 90.246,2.578 90.415,2.618 90.208 C 2.657 90.002,2.657 89.665,2.618 89.458 C 2.578 89.252,2.545 89.421,2.545 89.833 M211.458 89.618 C 211.665 89.657,212.002 89.657,212.208 89.618 C 212.415 89.578,212.246 89.545,211.833 89.545 C 211.421 89.545,211.252 89.578,211.458 89.618 M213.625 89.618 C 213.831 89.657,214.169 89.657,214.375 89.618 C 214.581 89.578,214.412 89.545,214.000 89.545 C 213.588 89.545,213.419 89.578,213.625 89.618 M300.708 89.619 C 300.960 89.658,301.373 89.658,301.625 89.619 C 301.877 89.581,301.671 89.550,301.167 89.550 C 300.662 89.550,300.456 89.581,300.708 89.619 M303.125 89.618 C 303.331 89.657,303.669 89.657,303.875 89.618 C 304.081 89.578,303.912 89.545,303.500 89.545 C 303.087 89.545,302.919 89.578,303.125 89.618 M180.042 90.282 C 180.202 90.323,180.465 90.323,180.625 90.282 C 180.785 90.240,180.654 90.205,180.333 90.205 C 180.012 90.205,179.881 90.240,180.042 90.282 M355.794 90.285 C 356.001 90.324,356.301 90.323,356.460 90.281 C 356.620 90.239,356.450 90.207,356.083 90.209 C 355.717 90.211,355.586 90.245,355.794 90.285 M240.079 104.417 C 240.079 111.842,240.100 114.904,240.125 111.221 C 240.150 107.538,240.150 101.463,240.125 97.721 C 240.100 93.979,240.079 96.992,240.079 104.417 M234.913 106.750 C 234.913 115.367,234.934 118.867,234.958 114.529 C 234.983 110.191,234.983 103.141,234.958 98.862 C 234.934 94.584,234.913 98.133,234.913 106.750 M392.392 92.500 C 392.392 93.279,392.420 93.598,392.455 93.208 C 392.490 92.819,392.490 92.181,392.455 91.792 C 392.420 91.402,392.392 91.721,392.392 92.500 M2.705 92.500 C 2.705 92.821,2.740 92.952,2.782 92.792 C 2.823 92.631,2.823 92.369,2.782 92.208 C 2.740 92.048,2.705 92.179,2.705 92.500 M187.167 92.219 C 187.167 92.248,187.410 92.491,187.708 92.760 L 188.250 93.250 187.760 92.708 C 187.304 92.203,187.167 92.090,187.167 92.219 M289.740 94.542 L 289.250 95.083 289.792 94.594 C 290.297 94.138,290.410 94.000,290.281 94.000 C 290.252 94.000,290.009 94.244,289.740 94.542 M212.208 94.289 C 212.644 94.324,213.356 94.324,213.792 94.289 C 214.227 94.255,213.871 94.227,213.000 94.227 C 212.129 94.227,211.773 94.255,212.208 94.289 M301.208 94.288 C 301.552 94.324,302.115 94.324,302.458 94.288 C 302.802 94.252,302.521 94.223,301.833 94.223 C 301.146 94.223,300.865 94.252,301.208 94.288 M179.460 94.451 C 179.668 94.491,179.968 94.490,180.127 94.448 C 180.286 94.406,180.117 94.374,179.750 94.375 C 179.383 94.377,179.253 94.411,179.460 94.451 M262.761 94.821 C 262.601 94.997,262.506 95.279,262.549 95.446 C 262.614 95.696,262.631 95.685,262.647 95.384 C 262.658 95.183,262.833 94.902,263.037 94.759 C 263.241 94.617,263.327 94.500,263.230 94.500 C 263.132 94.500,262.921 94.644,262.761 94.821 M351.574 100.500 C 351.574 103.479,351.597 104.698,351.625 103.208 C 351.652 101.719,351.652 99.281,351.625 97.792 C 351.597 96.302,351.574 97.521,351.574 100.500 M378.746 108.667 C 378.746 116.138,378.767 119.194,378.792 115.458 C 378.817 111.723,378.817 105.610,378.792 101.875 C 378.767 98.140,378.746 101.196,378.746 108.667 M257.413 109.083 C 257.413 116.508,257.433 119.570,257.458 115.887 C 257.483 112.205,257.483 106.130,257.458 102.387 C 257.433 98.645,257.413 101.658,257.413 109.083 M360.750 96.333 C 361.108 96.700,361.438 97.000,361.484 97.000 C 361.530 97.000,361.275 96.700,360.917 96.333 C 360.559 95.967,360.228 95.667,360.182 95.667 C 360.137 95.667,360.392 95.967,360.750 96.333 M189.881 98.250 C 189.882 98.708,189.915 98.876,189.953 98.623 C 189.991 98.369,189.990 97.994,189.951 97.789 C 189.911 97.584,189.880 97.792,189.881 98.250 M184.712 98.833 C 184.712 99.246,184.745 99.415,184.784 99.208 C 184.824 99.002,184.824 98.665,184.784 98.458 C 184.745 98.252,184.712 98.421,184.712 98.833 M105.994 100.625 L 105.083 101.583 106.042 100.672 C 106.932 99.826,107.076 99.667,106.953 99.667 C 106.927 99.667,106.495 100.098,105.994 100.625 M327.574 100.593 C 327.263 100.841,327.266 100.844,327.628 100.668 C 327.837 100.567,328.092 100.537,328.196 100.601 C 328.312 100.673,328.339 100.644,328.266 100.526 C 328.107 100.269,327.960 100.283,327.574 100.593 M360.406 104.875 L 359.917 105.417 360.458 104.927 C 360.963 104.471,361.077 104.333,360.948 104.333 C 360.919 104.333,360.675 104.577,360.406 104.875 M201.712 105.333 C 201.712 105.746,201.745 105.915,201.784 105.708 C 201.824 105.502,201.824 105.165,201.784 104.958 C 201.745 104.752,201.712 104.921,201.712 105.333 M224.039 105.333 C 224.039 105.654,224.073 105.785,224.115 105.625 C 224.157 105.465,224.157 105.202,224.115 105.042 C 224.073 104.881,224.039 105.013,224.039 105.333 M290.879 105.667 C 290.879 106.079,290.911 106.248,290.951 106.042 C 290.991 105.835,290.991 105.498,290.951 105.292 C 290.911 105.085,290.879 105.254,290.879 105.667 M229.557 106.583 C 229.558 107.317,229.587 107.596,229.622 107.204 C 229.657 106.812,229.657 106.212,229.621 105.871 C 229.585 105.529,229.557 105.850,229.557 106.583 M196.221 106.583 C 196.222 107.225,196.252 107.467,196.288 107.121 C 196.324 106.775,196.324 106.250,196.287 105.955 C 196.250 105.659,196.221 105.942,196.221 106.583 M290.883 107.333 C 290.883 107.837,290.915 108.044,290.953 107.792 C 290.991 107.540,290.991 107.127,290.953 106.875 C 290.915 106.623,290.883 106.829,290.883 107.333 M353.042 106.788 C 353.385 106.824,353.948 106.824,354.292 106.788 C 354.635 106.752,354.354 106.723,353.667 106.723 C 352.979 106.723,352.698 106.752,353.042 106.788 M201.714 107.917 C 201.716 108.375,201.748 108.543,201.786 108.289 C 201.825 108.036,201.824 107.661,201.784 107.456 C 201.744 107.251,201.713 107.458,201.714 107.917 M224.039 108.000 C 224.039 108.321,224.073 108.452,224.115 108.292 C 224.157 108.131,224.157 107.869,224.115 107.708 C 224.073 107.548,224.039 107.679,224.039 108.000 M353.381 110.790 C 353.912 110.823,354.737 110.823,355.214 110.789 C 355.692 110.756,355.258 110.729,354.250 110.729 C 353.242 110.729,352.851 110.757,353.381 110.790 M351.575 117.083 C 351.575 120.108,351.597 121.369,351.625 119.886 C 351.652 118.402,351.652 115.927,351.625 114.386 C 351.597 112.844,351.575 114.058,351.575 117.083 M186.548 113.250 C 186.549 113.708,186.581 113.876,186.620 113.623 C 186.658 113.369,186.657 112.994,186.617 112.789 C 186.578 112.584,186.546 112.792,186.548 113.250 M191.875 113.250 C 191.877 113.617,191.911 113.747,191.951 113.540 C 191.991 113.332,191.990 113.032,191.948 112.873 C 191.906 112.714,191.874 112.883,191.875 113.250 M324.625 116.791 C 326.481 116.818,329.519 116.818,331.375 116.791 C 333.231 116.765,331.712 116.743,328.000 116.743 C 324.287 116.743,322.769 116.765,324.625 116.791 M200.083 117.833 C 200.441 118.200,200.772 118.500,200.818 118.500 C 200.863 118.500,200.608 118.200,200.250 117.833 C 199.892 117.467,199.562 117.167,199.516 117.167 C 199.470 117.167,199.725 117.467,200.083 117.833 M290.083 119.000 C 290.628 119.550,291.110 120.000,291.156 120.000 C 291.202 120.000,290.794 119.550,290.250 119.000 C 289.706 118.450,289.223 118.000,289.177 118.000 C 289.131 118.000,289.539 118.450,290.083 119.000 M224.500 119.083 C 224.095 119.496,223.801 119.833,223.847 119.833 C 223.893 119.833,224.262 119.496,224.667 119.083 C 225.072 118.671,225.365 118.333,225.319 118.333 C 225.274 118.333,224.905 118.671,224.500 119.083 M242.708 118.624 C 243.785 118.653,245.548 118.653,246.625 118.624 C 247.702 118.595,246.821 118.572,244.667 118.572 C 242.512 118.572,241.631 118.595,242.708 118.624 M300.375 118.782 C 300.535 118.823,300.798 118.823,300.958 118.782 C 301.119 118.740,300.987 118.705,300.667 118.705 C 300.346 118.705,300.215 118.740,300.375 118.782 M302.460 118.785 C 302.668 118.824,302.968 118.823,303.127 118.781 C 303.286 118.739,303.117 118.707,302.750 118.709 C 302.383 118.711,302.253 118.745,302.460 118.785 M201.500 119.417 C 201.811 119.737,202.103 120.000,202.149 120.000 C 202.195 120.000,201.978 119.737,201.667 119.417 C 201.356 119.096,201.064 118.833,201.018 118.833 C 200.972 118.833,201.189 119.096,201.500 119.417 M189.740 120.042 L 189.250 120.583 189.792 120.094 C 190.297 119.638,190.410 119.500,190.281 119.500 C 190.252 119.500,190.009 119.744,189.740 120.042 M181.542 123.115 C 181.702 123.157,181.965 123.157,182.125 123.115 C 182.285 123.073,182.154 123.039,181.833 123.039 C 181.512 123.039,181.381 123.073,181.542 123.115 M300.125 123.451 C 300.331 123.491,300.669 123.491,300.875 123.451 C 301.081 123.411,300.912 123.379,300.500 123.379 C 300.087 123.379,299.919 123.411,300.125 123.451 M302.792 123.451 C 302.998 123.491,303.335 123.491,303.542 123.451 C 303.748 123.411,303.579 123.379,303.167 123.379 C 302.754 123.379,302.585 123.411,302.792 123.451 M212.544 123.620 C 212.797 123.658,213.172 123.657,213.377 123.617 C 213.582 123.578,213.375 123.546,212.917 123.548 C 212.458 123.549,212.291 123.581,212.544 123.620 M21.667 133.219 C 21.667 133.248,21.910 133.491,22.208 133.760 L 22.750 134.250 22.260 133.708 C 21.804 133.203,21.667 133.090,21.667 133.219 M25.917 137.333 C 26.368 137.792,26.775 138.167,26.821 138.167 C 26.867 138.167,26.535 137.792,26.083 137.333 C 25.632 136.875,25.225 136.500,25.179 136.500 C 25.133 136.500,25.465 136.875,25.917 137.333 M81.883 148.833 C 81.883 149.337,81.915 149.544,81.953 149.292 C 81.991 149.040,81.991 148.627,81.953 148.375 C 81.915 148.123,81.883 148.329,81.883 148.833 M101.958 153.792 C 110.231 153.816,123.769 153.816,132.042 153.792 C 140.315 153.768,133.546 153.748,117.000 153.748 C 100.454 153.748,93.685 153.768,101.958 153.792 M65.708 154.782 C 65.869 154.823,66.131 154.823,66.292 154.782 C 66.452 154.740,66.321 154.705,66.000 154.705 C 65.679 154.705,65.548 154.740,65.708 154.782 " stroke="none" fill="#7c7c7c" fill-rule="evenodd"></path></g></svg>